<svg width="164" height="25" viewBox="0 0 164 25" fill="none" xmlns="http://www.w3.org/2000/svg">
<path d="M11.1342 13.7118C11.1342 16.7864 8.64175 19.2789 5.56711 19.2789C2.49248 19.2789 0 16.7864 0 13.7118C0 10.6372 2.49248 8.14469 5.56711 8.14469C8.64175 8.14469 11.1342 10.6372 11.1342 13.7118Z" fill="#9798A8"/>
<path d="M21.6561 23.7326V1.13012L26.8869 0V7.814C27.5112 7.34042 28.2108 6.97448 28.9857 6.71617C29.7822 6.45785 30.611 6.32869 31.472 6.32869C33.4739 6.32869 35.1099 6.97448 36.38 8.26605C37.65 9.55762 38.285 11.2044 38.285 13.2063V23.7326H33.0542V13.9167C33.0542 12.991 32.7636 12.2484 32.1824 11.6887C31.6227 11.1075 30.88 10.8169 29.9544 10.8169C29.2871 10.8169 28.6951 10.9353 28.1785 11.1721C27.6619 11.4089 27.2314 11.7425 26.8869 12.1731V23.7326H21.6561Z" fill="#9798A8"/>
<path d="M40.6205 15.2082C40.6205 13.9812 40.8573 12.8296 41.3308 11.7533C41.8259 10.6555 42.4825 9.7083 43.3005 8.91184C44.14 8.11537 45.1194 7.49111 46.2388 7.03906C47.3797 6.56548 48.5959 6.32869 49.8875 6.32869C51.1791 6.32869 52.3845 6.56548 53.5039 7.03906C54.6448 7.49111 55.6242 8.11537 56.4422 8.91184C57.2817 9.7083 57.9383 10.6555 58.4119 11.7533C58.907 12.8296 59.1545 13.9812 59.1545 15.2082C59.1545 16.4352 58.907 17.5976 58.4119 18.6955C57.9383 19.7718 57.2817 20.7082 56.4422 21.5046C55.6242 22.3011 54.6448 22.9254 53.5039 23.3774C52.3845 23.8295 51.1791 24.0555 49.8875 24.0555C48.5959 24.0555 47.3797 23.8295 46.2388 23.3774C45.1194 22.9254 44.14 22.3011 43.3005 21.5046C42.4825 20.7082 41.8259 19.7718 41.3308 18.6955C40.8573 17.5976 40.6205 16.4352 40.6205 15.2082ZM49.8875 19.535C51.0499 19.535 52.0293 19.1152 52.8258 18.2757C53.6438 17.4362 54.0528 16.4137 54.0528 15.2082C54.0528 13.9812 53.6438 12.948 52.8258 12.1085C52.0293 11.269 51.0499 10.8492 49.8875 10.8492C48.7251 10.8492 47.7349 11.269 46.9169 12.1085C46.1204 12.948 45.7222 13.9812 45.7222 15.2082C45.7222 16.4137 46.1204 17.4362 46.9169 18.2757C47.7349 19.1152 48.7251 19.535 49.8875 19.535Z" fill="#9798A8"/>
<path d="M60.2839 21.8275L62.7701 18.308C63.8465 18.9538 64.8259 19.4274 65.7085 19.7287C66.591 20.0086 67.4629 20.1485 68.3239 20.1485C69.1849 20.1485 69.863 20.0301 70.3581 19.7933C70.8748 19.535 71.1331 19.2013 71.1331 18.7923C71.1331 18.4695 70.9931 18.2111 70.7133 18.0174C70.4335 17.8021 69.9922 17.6515 69.3894 17.5654L65.9991 17.0487C64.32 16.7904 63.0285 16.2307 62.1244 15.3697C61.2203 14.4871 60.7682 13.3462 60.7682 11.947C60.7682 10.2249 61.4248 8.86878 62.7379 7.87858C64.051 6.88838 65.8484 6.39327 68.1302 6.39327C69.3572 6.39327 70.5841 6.57625 71.8111 6.94219C73.0597 7.28661 74.2113 7.79248 75.2661 8.45979L72.7798 11.8179C71.8542 11.2797 70.9716 10.8922 70.1321 10.6555C69.2926 10.3971 68.4531 10.268 67.6135 10.268C66.9462 10.268 66.4081 10.3864 65.9991 10.6232C65.5901 10.8384 65.3856 11.129 65.3856 11.495C65.3856 11.8394 65.5363 12.1192 65.8376 12.3345C66.139 12.5282 66.6556 12.6789 67.3875 12.7865L70.7779 13.3032C72.4569 13.54 73.7485 14.0996 74.6526 14.9822C75.5782 15.8433 76.041 16.9411 76.041 18.2757C76.041 19.0937 75.8473 19.8579 75.4598 20.5683C75.0724 21.2786 74.5342 21.8921 73.8454 22.4087C73.1781 22.9254 72.3708 23.3344 71.4237 23.6357C70.4765 23.9156 69.454 24.0555 68.3562 24.0555C66.7417 24.0555 65.2349 23.8725 63.8357 23.5066C62.458 23.1191 61.2741 22.5594 60.2839 21.8275Z" fill="#9798A8"/>
<path d="M80.1425 18.534V11.0106H76.6876V6.65159H80.1425V2.26025L85.3734 1.13012V6.65159H90.1522V11.0106H85.3734V17.5008C85.3734 18.2542 85.5348 18.7923 85.8577 19.1152C86.2021 19.4166 86.7941 19.5673 87.6336 19.5673C88.0426 19.5673 88.4301 19.5458 88.7961 19.5027C89.162 19.4381 89.5602 19.3413 89.9908 19.2121V23.442C89.5172 23.5927 88.9144 23.7111 88.1826 23.7972C87.4507 23.9048 86.8372 23.9586 86.3421 23.9586C84.2971 23.9586 82.7472 23.5066 81.6924 22.6025C80.6592 21.6769 80.1425 20.3207 80.1425 18.534Z" fill="#9798A8"/>
<path d="M107.855 21.4724C106.778 22.3765 105.67 23.033 104.529 23.442C103.409 23.851 102.139 24.0555 100.719 24.0555C99.427 24.0555 98.2108 23.8295 97.0699 23.3774C95.929 22.9254 94.9388 22.3011 94.0993 21.5046C93.2813 20.7082 92.6248 19.7718 92.1297 18.6955C91.6561 17.5976 91.4193 16.4352 91.4193 15.2082C91.4193 13.9812 91.6453 12.8296 92.0974 11.7533C92.5709 10.6555 93.206 9.7083 94.0024 8.91184C94.7989 8.11537 95.7353 7.49111 96.8116 7.03906C97.9094 6.58701 99.0826 6.36098 100.331 6.36098C101.58 6.36098 102.731 6.59777 103.786 7.07135C104.841 7.54492 105.745 8.19071 106.498 9.0087C107.273 9.8267 107.876 10.8169 108.307 11.9793C108.737 13.1202 108.952 14.358 108.952 15.6926V16.9842H96.7793C97.1237 17.7806 97.6619 18.4372 98.3938 18.9538C99.1257 19.4489 99.9867 19.6964 100.977 19.6964C101.687 19.6964 102.333 19.5888 102.914 19.3736C103.495 19.1368 103.991 18.8139 104.4 18.4049L107.855 21.4724ZM100.234 10.6232C99.3732 10.6232 98.6306 10.86 98.0063 11.3335C97.382 11.8071 96.9408 12.4744 96.6825 13.3355H103.818C103.539 12.5175 103.076 11.8609 102.43 11.3658C101.806 10.8707 101.074 10.6232 100.234 10.6232Z" fill="#9798A8"/>
<path d="M111.398 23.7326V6.65159H116.628V8.36292C117.188 7.69561 117.845 7.17898 118.598 6.81303C119.351 6.44709 120.191 6.26412 121.117 6.26412C121.612 6.28564 122.01 6.3287 122.311 6.39327C122.613 6.43633 122.871 6.53319 123.086 6.68388V11.2367C122.742 11.086 122.354 10.9676 121.924 10.8815C121.493 10.7738 121.052 10.72 120.6 10.72C119.782 10.72 119.018 10.9138 118.307 11.3012C117.619 11.6887 117.059 12.2161 116.628 12.8834V23.7326H111.398Z" fill="#9798A8"/>
<path d="M124.323 18.082C125.141 18.082 125.84 18.3834 126.421 18.9861C127.024 19.5673 127.325 20.2669 127.325 21.0849C127.325 21.9029 127.024 22.6132 126.421 23.216C125.84 23.7972 125.141 24.0878 124.323 24.0878C123.505 24.0878 122.794 23.7972 122.191 23.216C121.61 22.6132 121.32 21.9029 121.32 21.0849C121.32 20.2669 121.61 19.5673 122.191 18.9861C122.794 18.3834 123.505 18.082 124.323 18.082Z" fill="#9798A8"/>
<path d="M137.99 19.535C138.7 19.535 139.357 19.3843 139.96 19.083C140.562 18.7816 141.144 18.3188 141.703 17.6945L144.803 20.9234C143.942 21.9136 142.887 22.6886 141.639 23.2483C140.39 23.7864 139.088 24.0555 137.732 24.0555C136.462 24.0555 135.267 23.8295 134.148 23.3774C133.05 22.9254 132.092 22.3011 131.274 21.5046C130.477 20.7082 129.842 19.7718 129.369 18.6955C128.917 17.6192 128.691 16.4568 128.691 15.2082C128.691 13.9597 128.917 12.7973 129.369 11.721C129.842 10.6232 130.477 9.68678 131.274 8.91184C132.092 8.11537 133.05 7.49111 134.148 7.03906C135.267 6.56548 136.462 6.32869 137.732 6.32869C139.131 6.32869 140.466 6.60853 141.736 7.16822C143.006 7.7279 144.082 8.50284 144.964 9.49304L141.768 12.8188C141.165 12.1515 140.552 11.6564 139.927 11.3335C139.303 11.0106 138.614 10.8492 137.861 10.8492C136.741 10.8492 135.794 11.269 135.019 12.1085C134.266 12.948 133.889 13.9812 133.889 15.2082C133.889 16.4352 134.277 17.4685 135.052 18.308C135.848 19.126 136.828 19.535 137.99 19.535Z" fill="#9798A8"/>
<path d="M145.466 15.2082C145.466 13.9812 145.703 12.8296 146.176 11.7533C146.671 10.6555 147.328 9.7083 148.146 8.91184C148.985 8.11537 149.965 7.49111 151.084 7.03906C152.225 6.56548 153.441 6.32869 154.733 6.32869C156.025 6.32869 157.23 6.56548 158.349 7.03906C159.49 7.49111 160.47 8.11537 161.288 8.91184C162.127 9.7083 162.784 10.6555 163.257 11.7533C163.752 12.8296 164 13.9812 164 15.2082C164 16.4352 163.752 17.5976 163.257 18.6955C162.784 19.7718 162.127 20.7082 161.288 21.5046C160.47 22.3011 159.49 22.9254 158.349 23.3774C157.23 23.8295 156.025 24.0555 154.733 24.0555C153.441 24.0555 152.225 23.8295 151.084 23.3774C149.965 22.9254 148.985 22.3011 148.146 21.5046C147.328 20.7082 146.671 19.7718 146.176 18.6955C145.703 17.5976 145.466 16.4352 145.466 15.2082ZM154.733 19.535C155.895 19.535 156.875 19.1152 157.671 18.2757C158.489 17.4362 158.898 16.4137 158.898 15.2082C158.898 13.9812 158.489 12.948 157.671 12.1085C156.875 11.269 155.895 10.8492 154.733 10.8492C153.571 10.8492 152.58 11.269 151.762 12.1085C150.966 12.948 150.568 13.9812 150.568 15.2082C150.568 16.4137 150.966 17.4362 151.762 18.2757C152.58 19.1152 153.571 19.535 154.733 19.535Z" fill="#9798A8"/>
</svg>
