<svg width="164" height="37" viewBox="0 0 164 37" fill="none" xmlns="http://www.w3.org/2000/svg">
<path d="M56.9478 27.6518C55.9567 27.6518 55.0895 27.4667 54.3461 27.0966C53.6028 26.7265 53.0011 26.2066 52.5409 25.5369L52.1693 27.3346H49.1428V8.30071H52.5409V16.0993C52.9657 15.5177 53.5232 15.0066 54.2134 14.566C54.9213 14.1254 55.8328 13.9051 56.9478 13.9051C58.1867 13.9051 59.2928 14.2047 60.2662 14.8039C61.2396 15.4032 62.0095 16.2227 62.5759 17.2625C63.1422 18.3023 63.4254 19.4831 63.4254 20.8049C63.4254 22.1267 63.1422 23.3075 62.5759 24.3473C62.0095 25.3695 61.2396 26.1802 60.2662 26.7794C59.2928 27.361 58.1867 27.6518 56.9478 27.6518ZM56.231 24.691C57.3106 24.691 58.2044 24.3297 58.9123 23.6071C59.6203 22.8845 59.9742 21.9504 59.9742 20.8049C59.9742 19.6593 59.6203 18.7165 58.9123 17.9763C58.2044 17.236 57.3106 16.8659 56.231 16.8659C55.1337 16.8659 54.2311 17.236 53.5232 17.9763C52.8329 18.6988 52.4878 19.6329 52.4878 20.7785C52.4878 21.924 52.8329 22.8669 53.5232 23.6071C54.2311 24.3297 55.1337 24.691 56.231 24.691Z" fill="#9798A8"/>
<path d="M72.0625 27.6518C70.7351 27.6518 69.5581 27.3698 68.5316 26.8058C67.5051 26.2419 66.6999 25.4488 66.1158 24.4266C65.5318 23.4044 65.2397 22.2236 65.2397 20.8842C65.2397 19.5272 65.5229 18.3199 66.0893 17.2625C66.6733 16.205 67.4697 15.3855 68.4785 14.8039C69.505 14.2047 70.7085 13.9051 72.089 13.9051C73.381 13.9051 74.5225 14.1871 75.5136 14.7511C76.5047 15.315 77.2746 16.0905 77.8233 17.0774C78.3896 18.0467 78.6728 19.1306 78.6728 20.329C78.6728 20.5229 78.6639 20.7256 78.6462 20.9371C78.6462 21.1486 78.6374 21.3689 78.6197 21.598H68.6113C68.6821 22.6202 69.036 23.422 69.6732 24.0036C70.328 24.5852 71.1156 24.876 72.0359 24.876C72.7261 24.876 73.3013 24.7262 73.7615 24.4266C74.2394 24.1094 74.5933 23.704 74.8234 23.2106H78.2746C78.0268 24.0389 77.6109 24.7967 77.0268 25.484C76.4605 26.1537 75.7526 26.6825 74.903 27.0702C74.0712 27.4579 73.1244 27.6518 72.0625 27.6518ZM72.089 16.6545C71.2572 16.6545 70.5227 16.8924 69.8856 17.3682C69.2484 17.8264 68.8414 18.5314 68.6644 19.4831H75.2216C75.1685 18.6195 74.8499 17.9322 74.2659 17.4211C73.6819 16.91 72.9562 16.6545 72.089 16.6545Z" fill="#9798A8"/>
<path d="M85.274 27.6518C84.1413 27.6518 83.2121 27.4755 82.4865 27.1231C81.7609 26.753 81.2211 26.2683 80.8671 25.6691C80.5131 25.0699 80.3362 24.409 80.3362 23.6864C80.3362 22.4703 80.814 21.4834 81.7697 20.7256C82.7254 19.9678 84.159 19.5888 86.0704 19.5888H89.4154V19.2716C89.4154 18.3728 89.1588 17.7119 88.6455 17.2889C88.1323 16.8659 87.4951 16.6545 86.7341 16.6545C86.0439 16.6545 85.4421 16.8219 84.9289 17.1567C84.4156 17.474 84.0971 17.9498 83.9732 18.5843H80.6547C80.7432 17.6326 81.0618 16.8043 81.6104 16.0993C82.1768 15.3943 82.9024 14.8568 83.7873 14.4867C84.6723 14.099 85.6634 13.9051 86.7607 13.9051C88.6367 13.9051 90.1145 14.3722 91.1941 15.3062C92.2737 16.2403 92.8135 17.5621 92.8135 19.2716V27.3346H89.9198L89.6012 25.2197C89.2119 25.9246 88.6632 26.5062 87.9553 26.9645C87.2651 27.4227 86.3713 27.6518 85.274 27.6518ZM86.0439 25.0082C87.0173 25.0082 87.7695 24.691 88.3004 24.0565C88.8491 23.422 89.1942 22.6378 89.3358 21.7037H86.4421C85.5395 21.7037 84.8935 21.8711 84.5041 22.206C84.1148 22.5232 83.9201 22.9198 83.9201 23.3956C83.9201 23.9067 84.1148 24.3032 84.5041 24.5852C84.8935 24.8672 85.4067 25.0082 86.0439 25.0082Z" fill="#9798A8"/>
<path d="M107.95 14.2224V27.3346H104.95L104.684 25.1139C104.277 25.8894 103.684 26.5062 102.905 26.9645C102.144 27.4227 101.242 27.6518 100.198 27.6518C98.5694 27.6518 97.304 27.1407 96.4013 26.1185C95.4987 25.0963 95.0474 23.5983 95.0474 21.6244V14.2224H98.4455V21.3072C98.4455 22.4351 98.6756 23.2987 99.1357 23.8979C99.5959 24.4971 100.313 24.7967 101.286 24.7967C102.242 24.7967 103.021 24.4619 103.622 23.7921C104.242 23.1224 104.551 22.1884 104.551 20.9899V14.2224H107.95Z" fill="#9798A8"/>
<path d="M116.482 27.3346C115.101 27.3346 113.995 26.9997 113.163 26.33C112.332 25.6603 111.916 24.4707 111.916 22.7611V17.051H109.659V14.2224H111.916L112.314 10.7064H115.314V14.2224H118.871V17.051H115.314V22.7876C115.314 23.422 115.446 23.8626 115.712 24.1094C115.995 24.3385 116.473 24.453 117.146 24.453H118.791V27.3346H116.482Z" fill="#9798A8"/>
<path d="M122.638 33.1504L125.691 26.4622H124.895L119.771 14.2224H123.461L127.151 23.4485L131.001 14.2224H134.611L126.249 33.1504H122.638Z" fill="#9798A8"/>
<path d="M136.036 27.3346V14.2224H139.063L139.381 16.6809C139.859 15.8349 140.505 15.1652 141.319 14.6718C142.151 14.1607 143.124 13.9051 144.239 13.9051V17.474H143.284C142.54 17.474 141.877 17.5885 141.293 17.8176C140.708 18.0467 140.248 18.4433 139.912 19.0072C139.594 19.5712 139.434 20.3555 139.434 21.36V27.3346H136.036Z" fill="#9798A8"/>
<path d="M151.93 27.6518C150.603 27.6518 149.426 27.3698 148.399 26.8058C147.373 26.2419 146.567 25.4488 145.983 24.4266C145.399 23.4044 145.107 22.2236 145.107 20.8842C145.107 19.5272 145.39 18.3199 145.957 17.2625C146.541 16.205 147.337 15.3855 148.346 14.8039C149.373 14.2047 150.576 13.9051 151.957 13.9051C153.249 13.9051 154.39 14.1871 155.381 14.7511C156.372 15.315 157.142 16.0905 157.691 17.0774C158.257 18.0467 158.54 19.1306 158.54 20.329C158.54 20.5229 158.531 20.7256 158.514 20.9371C158.514 21.1486 158.505 21.3689 158.487 21.598H148.479C148.55 22.6202 148.904 23.422 149.541 24.0036C150.196 24.5852 150.983 24.876 151.903 24.876C152.594 24.876 153.169 24.7262 153.629 24.4266C154.107 24.1094 154.461 23.704 154.691 23.2106H158.142C157.894 24.0389 157.478 24.7967 156.894 25.484C156.328 26.1537 155.62 26.6825 154.771 27.0702C153.939 27.4579 152.992 27.6518 151.93 27.6518ZM151.957 16.6545C151.125 16.6545 150.39 16.8924 149.753 17.3682C149.116 17.8264 148.709 18.5314 148.532 19.4831H155.089C155.036 18.6195 154.717 17.9322 154.133 17.4211C153.549 16.91 152.824 16.6545 151.957 16.6545Z" fill="#9798A8"/>
<path d="M160.602 27.3346V8.30071H164V27.3346H160.602Z" fill="#9798A8"/>
<path d="M32.7675 21.7893C37.5487 16.6735 37.1606 8.58272 37.1413 8.2335C37.1107 7.68186 36.6682 7.24145 36.1142 7.21096C35.9484 7.20165 33.5998 7.08759 30.6609 7.68327C30.0812 4.71843 29.0655 2.58838 29.0173 2.48816C28.7772 1.99016 28.1995 1.75189 27.6756 1.93483C27.5704 1.97153 25.3412 2.762 22.8272 4.44938C21.1782 1.96983 19.4419 0.399331 19.3042 0.276525C18.8911 -0.092175 18.2655 -0.092175 17.8522 0.276525C17.7144 0.399331 15.9781 1.96983 14.3291 4.44967C11.8152 2.76229 9.5856 1.97153 9.48071 1.93483C8.95712 1.75217 8.3791 1.99016 8.139 2.48816C8.0908 2.58838 7.07481 4.71843 6.49538 7.68356C3.55654 7.08788 1.20762 7.20193 1.04179 7.21096C0.487867 7.24145 0.0456331 7.68186 0.0150172 8.23378C-0.00454291 8.58272 -0.392344 16.6735 4.38883 21.7893C1.95289 23.1323 0.35803 24.8868 0.279222 24.9743C-0.0907196 25.3859 -0.0907196 26.009 0.279222 26.4206C0.452429 26.6132 4.57877 31.1355 9.83393 31.1355C11.1995 31.1355 12.4882 30.8298 13.6518 30.3744C14.8615 34.0236 17.7175 36.6033 17.8519 36.7236C18.0585 36.9077 18.3185 37 18.5782 37C18.8378 37 19.0975 36.9077 19.3042 36.7236C19.4388 36.6036 22.2943 34.0236 23.5042 30.3747C24.6679 30.8298 25.9566 31.1355 27.3221 31.1355C32.5773 31.1355 36.7039 26.6132 36.8771 26.4206C37.247 26.009 37.247 25.3859 36.8771 24.9743C36.798 24.8865 35.2029 23.132 32.7675 21.7893ZM30.9155 20.5801C28.0841 23.3999 23.8668 24.264 21.1848 24.5204C23.1198 22.2193 25.8455 18.1356 25.8455 13.3908C25.8455 12.8597 25.8103 12.3375 25.7471 11.8245C29.0508 9.79158 33.1062 9.42712 34.9698 9.37489C34.908 11.6342 34.3842 17.1258 30.9155 20.5801ZM27.4491 4.36921C27.7774 5.22377 28.2392 6.59552 28.5479 8.22051C27.4636 8.55618 26.3526 8.99998 25.2811 9.58577C24.9397 8.41615 24.4692 7.31937 23.9402 6.31773C25.3114 5.38694 26.6109 4.74186 27.4491 4.36921ZM18.5793 2.61266C19.9372 4.04088 22.7839 7.445 23.5011 11.5224L23.5016 11.5244C23.6085 12.1328 23.6683 12.7564 23.6683 13.3908C23.6683 18.259 20.139 22.521 18.5782 24.1675C17.0173 22.521 13.4877 18.259 13.4877 13.3908C13.4877 8.52089 17.0199 4.25741 18.5793 2.61266ZM9.70693 4.36921C10.5452 4.74214 11.8449 5.38723 13.2158 6.31801C12.6869 7.31937 12.2163 8.41615 11.875 9.58577C10.8034 8.99998 9.69247 8.55618 8.60816 8.22051C8.91687 6.59552 9.37894 5.22348 9.70693 4.36921ZM11.4089 11.8245C11.3457 12.3375 11.3109 12.8597 11.3109 13.3908C11.3109 18.1384 14.0394 22.2238 15.9744 24.5243C13.2961 24.2714 9.08185 23.4098 6.24024 20.5801C2.78235 17.1365 2.25309 11.6345 2.18789 9.37319C4.05008 9.42345 8.09704 9.7848 11.4089 11.8245ZM2.64401 25.6959C3.37738 25.0342 4.60825 24.0537 6.12629 23.3366C9.29418 25.6869 13.2073 26.4539 15.808 26.6928C15.2691 27.0906 14.6375 27.5033 13.937 27.8663C13.8979 27.8833 13.8602 27.903 13.8239 27.9242C12.6449 28.5196 11.2785 28.9676 9.83393 28.9676C6.70544 28.9676 3.92279 26.8464 2.64401 25.6959ZM18.5765 34.3686C17.7028 33.4087 16.2754 31.5951 15.6291 29.4095C16.9059 28.6619 17.9239 27.8232 18.5779 27.2238C19.2319 27.8232 20.2498 28.6619 21.5264 29.4092C20.8809 31.5867 19.4501 33.4059 18.5765 34.3686ZM27.3221 28.9676C24.9755 28.9676 22.8238 27.7743 21.3548 26.6919C23.9555 26.4525 27.8647 25.6846 31.0295 23.3369C32.5418 24.052 33.7767 25.0359 34.5126 25.6985C33.2375 26.8497 30.4645 28.9676 27.3221 28.9676Z" fill="#9798A8"/>
</svg>
