<svg width="164" height="29" viewBox="0 0 164 29" fill="none" xmlns="http://www.w3.org/2000/svg">
<path d="M149.181 19.4029C148.762 19.8819 148.243 20.1214 147.624 20.1214C146.986 20.1214 146.457 19.8819 146.038 19.4029C145.639 18.904 145.439 18.1755 145.439 17.2176C145.439 16.2596 145.648 15.5411 146.068 15.0621C146.487 14.5632 147.006 14.3137 147.624 14.3137C148.243 14.3137 148.762 14.5632 149.181 15.0621C149.6 15.5411 149.81 16.2596 149.81 17.2176C149.81 18.1755 149.6 18.904 149.181 19.4029Z" fill="#9798A8"/>
<path fill-rule="evenodd" clip-rule="evenodd" d="M105.417 0H154.216L164 14.4335L154.216 28.867H105.417L115.088 14.4335L105.417 0ZM130.173 10.7513C130.652 10.9709 131.021 11.2902 131.281 11.7093H138.286C137.966 9.4142 136.928 7.59807 135.172 6.26093C133.436 4.92378 131.181 4.25521 128.407 4.25521C126.231 4.25521 124.335 4.71423 122.719 5.63227C121.102 6.53035 119.855 7.79765 118.977 9.43416C118.119 11.0707 117.69 12.9367 117.69 15.0322C117.69 17.1277 118.119 18.9938 118.977 20.6303C119.855 22.2668 121.102 23.5441 122.719 24.4621C124.355 25.3602 126.271 25.8092 128.467 25.8092C130.941 25.8092 132.987 25.2504 134.603 24.1328C136.22 22.9952 137.487 21.6381 138.405 20.0615V13.4157H127.598V18.1156H132.897C131.959 19.353 130.722 19.9717 129.185 19.9717C127.568 19.9717 126.371 19.5625 125.593 18.7443C124.814 17.926 124.425 16.6887 124.425 15.0322C124.425 13.5953 124.774 12.4677 125.473 11.6494C126.171 10.8112 127.159 10.3921 128.437 10.3921C129.115 10.3921 129.694 10.5119 130.173 10.7513ZM143.044 24.8213C144.401 25.5198 145.928 25.8691 147.624 25.8691C149.321 25.8691 150.847 25.5198 152.204 24.8213C153.562 24.1228 154.619 23.1249 155.378 21.8277C156.156 20.5105 156.545 18.9738 156.545 17.2176C156.545 15.4613 156.156 13.9346 155.378 12.6373C154.619 11.3201 153.562 10.3123 152.204 9.61377C150.847 8.91526 149.321 8.56601 147.624 8.56601C145.928 8.56601 144.401 8.91526 143.044 9.61377C141.687 10.3123 140.619 11.3201 139.841 12.6373C139.082 13.9346 138.703 15.4613 138.703 17.2176C138.703 18.9738 139.082 20.5105 139.841 21.8277C140.619 23.1249 141.687 24.1228 143.044 24.8213Z" fill="#9798A8"/>
<path d="M25.4756 3.39561V24.5904H18.8598V14.0229L15.5967 24.5904H9.90886L6.64582 14.0229V24.5904H0V3.39561H8.14263L12.8127 16.1185L17.363 3.39561H25.4756Z" fill="#9798A8"/>
<path d="M35.2998 24.7999C33.6035 24.7999 32.0767 24.4507 30.7196 23.7522C29.3625 23.0537 28.2948 22.0558 27.5165 20.7586C26.7581 19.4414 26.3789 17.9047 26.3789 16.1484C26.3789 14.3921 26.7581 12.8654 27.5165 11.5682C28.2948 10.251 29.3625 9.24314 30.7196 8.54463C32.0767 7.84612 33.6035 7.49686 35.2998 7.49686C36.9962 7.49686 38.523 7.84612 39.8801 8.54463C41.2372 9.24314 42.2949 10.251 43.0533 11.5682C43.8316 12.8654 44.2208 14.3921 44.2208 16.1484C44.2208 17.9047 43.8316 19.4414 43.0533 20.7586C42.2949 22.0558 41.2372 23.0537 39.8801 23.7522C38.523 24.4507 36.9962 24.7999 35.2998 24.7999ZM35.2998 19.0522C35.9185 19.0522 36.4374 18.8127 36.8565 18.3337C37.2756 17.8348 37.4852 17.1064 37.4852 16.1484C37.4852 15.1904 37.2756 14.472 36.8565 13.993C36.4374 13.4941 35.9185 13.2446 35.2998 13.2446C34.6812 13.2446 34.1623 13.4941 33.7432 13.993C33.3241 14.472 33.1145 15.1904 33.1145 16.1484C33.1145 17.1064 33.3141 17.8348 33.7132 18.3337C34.1323 18.8127 34.6612 19.0522 35.2998 19.0522Z" fill="#9798A8"/>
<path d="M53.6729 18.2739L56.3672 7.70641H63.4321L57.8041 24.5904H49.5118L43.8838 7.70641H50.9487L53.6729 18.2739Z" fill="#9798A8"/>
<path d="M80.343 15.9987C80.343 16.4577 80.313 16.8968 80.2532 17.3159H69.566C69.6657 18.7728 70.2744 19.5012 71.3921 19.5012C72.1105 19.5012 72.6294 19.172 72.9487 18.5134H79.9837C79.7442 19.7108 79.2353 20.7885 78.457 21.7465C77.6986 22.6845 76.7307 23.4329 75.5532 23.9917C74.3957 24.5305 73.1184 24.7999 71.7214 24.7999C70.0449 24.7999 68.5481 24.4507 67.2309 23.7522C65.9337 23.0537 64.9159 22.0558 64.1775 20.7586C63.459 19.4414 63.0998 17.9047 63.0998 16.1484C63.0998 14.3921 63.459 12.8654 64.1775 11.5682C64.9159 10.251 65.9337 9.24314 67.2309 8.54463C68.5481 7.84612 70.0449 7.49686 71.7214 7.49686C73.3978 7.49686 74.8846 7.84612 76.1818 8.54463C77.499 9.22318 78.5169 10.2011 79.2353 11.4784C79.9738 12.7556 80.343 14.2624 80.343 15.9987ZM73.6073 14.4121C73.6073 13.8533 73.4277 13.4342 73.0685 13.1548C72.7093 12.8554 72.2602 12.7057 71.7214 12.7057C70.5439 12.7057 69.8553 13.2745 69.6558 14.4121H73.6073Z" fill="#9798A8"/>
<path d="M87.8932 10.8198C88.5717 9.84186 89.4 9.06352 90.3779 8.48475C91.3558 7.88603 92.3736 7.58667 93.4314 7.58667V14.6815H91.5454C90.2881 14.6815 89.3601 14.9011 88.7613 15.3401C88.1826 15.7792 87.8932 16.5575 87.8932 17.6751V24.5904H81.2474V7.70641H87.8932V10.8198Z" fill="#9798A8"/>
<path d="M101.538 24.7999C99.9414 24.7999 98.5244 24.5405 97.2871 24.0216C96.0697 23.5027 95.1017 22.7842 94.3832 21.8662C93.6648 20.9482 93.2557 19.9104 93.1559 18.7528H99.5323C99.6121 19.2518 99.8216 19.621 100.161 19.8605C100.52 20.1 100.969 20.2197 101.508 20.2197C101.847 20.2197 102.117 20.1499 102.316 20.0102C102.516 19.8505 102.616 19.6609 102.616 19.4414C102.616 19.0622 102.406 18.7928 101.987 18.6331C101.568 18.4734 100.859 18.2938 99.8616 18.0943C98.6442 17.8548 97.6363 17.5953 96.838 17.3159C96.0597 17.0365 95.3711 16.5575 94.7724 15.879C94.1936 15.2004 93.9043 14.2624 93.9043 13.065C93.9043 12.0272 94.1737 11.0892 94.7125 10.251C95.2714 9.39282 96.0896 8.72424 97.1673 8.24527C98.245 7.74633 99.5522 7.49686 101.089 7.49686C103.364 7.49686 105.14 8.05567 106.418 9.17328C107.715 10.2909 108.493 11.7478 108.753 13.544H102.855C102.755 13.0849 102.546 12.7357 102.227 12.4962C101.907 12.2367 101.478 12.107 100.939 12.107C100.6 12.107 100.341 12.1769 100.161 12.3166C99.9813 12.4363 99.8915 12.6259 99.8915 12.8854C99.8915 13.2246 100.101 13.4841 100.52 13.6637C100.939 13.8234 101.608 13.993 102.526 14.1726C103.743 14.4121 104.771 14.6815 105.609 14.9809C106.448 15.2803 107.176 15.7991 107.795 16.5376C108.413 17.256 108.723 18.2539 108.723 19.5312C108.723 20.5291 108.433 21.4271 107.855 22.2254C107.276 23.0237 106.438 23.6524 105.34 24.1114C104.262 24.5704 102.995 24.7999 101.538 24.7999Z" fill="#9798A8"/>
</svg>
