<svg width="164" height="41" viewBox="0 0 164 41" fill="none" xmlns="http://www.w3.org/2000/svg">
<path d="M18.8666 40.3819L18.8666 21.5946H2.52116e-09L0 21.537C4.56478e-07 31.968 8.34265 40.3819 18.8666 40.3819Z" fill="#9798A8"/>
<path d="M18.8666 18.8449L0.0576984 18.8449L0.0577 5.03835e-09L3.37188e-06 0C10.443 9.11904e-07 18.8666 8.33304 18.8666 18.8449Z" fill="#9798A8"/>
<path d="M37.9121 40.3819H32.7777V11.7108H42.8848C46.6042 11.7108 49.4477 12.4645 51.4152 13.9721C53.3827 15.4797 54.3665 17.6604 54.3665 20.514C54.3665 23.3946 53.3019 25.656 51.1726 27.2982C49.0434 28.9134 45.9439 29.7211 41.8741 29.7211H37.9121V40.3819ZM42.6827 15.9912H37.9121V25.4002H42.1571C44.5828 25.4002 46.3482 25.0099 47.4532 24.2291C48.5583 23.4484 49.1108 22.237 49.1108 20.5948C49.1108 18.9526 48.5852 17.7815 47.5341 17.0815C46.5099 16.3547 44.8928 15.9912 42.6827 15.9912Z" fill="#9798A8"/>
<path d="M75.7383 20.0698V40.3819H70.7252L70.8869 36.8283C70.1592 38.0667 69.2024 39.0358 68.0165 39.7358C66.8575 40.4088 65.5234 40.7453 64.0141 40.7453C62.2352 40.7453 60.7259 40.3415 59.4861 39.5339C58.2463 38.6993 57.3029 37.5552 56.6561 36.1014C56.0092 34.6477 55.6858 32.9786 55.6858 31.0941C55.6858 28.8327 56.1305 26.854 57.0199 25.1579C57.9094 23.435 59.1222 22.0889 60.6585 21.1197C62.2217 20.1506 63.9736 19.666 65.9142 19.666C67.2079 19.666 68.3534 19.9487 69.3506 20.514C70.3478 21.0524 71.116 21.7793 71.655 22.6946L72.1402 20.0698H75.7383ZM66.2781 24.0272C64.607 24.0272 63.2729 24.6599 62.2756 25.9252C61.2784 27.1905 60.7798 28.8461 60.7798 30.8922C60.7798 32.642 61.1571 34.0016 61.9118 34.9707C62.6664 35.9399 63.7041 36.4245 65.0248 36.4245C66.1029 36.4245 67.0731 36.1149 67.9356 35.4957C68.825 34.8765 69.5258 34.015 70.0379 32.9113C70.55 31.8075 70.806 30.5422 70.806 29.1154C70.806 27.527 70.4018 26.2886 69.5932 25.4002C68.7846 24.4849 67.6796 24.0272 66.2781 24.0272Z" fill="#9798A8"/>
<path d="M89.628 40.7453C87.1754 40.7453 85.2618 40.0723 83.8872 38.7262C82.5396 37.3802 81.8792 35.6168 81.9062 33.4362L82.0679 24.108H78.5911V19.989H82.1488L82.1892 15.7893H87.1215L87.0406 19.989H93.7113V24.108H87.0002L86.8789 32.9113C86.8519 34.015 87.1215 34.89 87.6875 35.5361C88.2804 36.1553 89.1564 36.4649 90.3153 36.4649C90.9352 36.4649 91.5147 36.3841 92.0537 36.2226C92.5928 36.061 93.1588 35.7649 93.7517 35.3342L95.2072 39.1301C94.5873 39.6685 93.7922 40.0723 92.8219 40.3415C91.8516 40.6107 90.787 40.7453 89.628 40.7453Z" fill="#9798A8"/>
<path d="M110.46 24.7541C109.921 24.5657 109.233 24.4714 108.398 24.4714C106.942 24.4714 105.77 25.0099 104.881 26.0867C103.991 27.1366 103.331 28.8327 102.9 31.1748C102.495 33.4901 102.293 36.5591 102.293 40.3819H97.4013V27.2174L97.3609 19.989H102.293L102.051 25.6829C102.751 23.5023 103.722 21.9543 104.961 21.039C106.228 20.1236 107.576 19.666 109.004 19.666C109.436 19.666 109.84 19.6929 110.217 19.7468C110.595 19.8006 110.945 19.8814 111.268 19.989L110.46 24.7541Z" fill="#9798A8"/>
<path d="M118.796 19.989V40.3819H113.864V19.989H118.796ZM116.33 16.7585C115.36 16.7585 114.592 16.4624 114.026 15.8701C113.46 15.2778 113.177 14.5644 113.177 13.7298C113.177 12.8953 113.46 12.1819 114.026 11.5896C114.592 10.9973 115.36 10.7012 116.33 10.7012C117.3 10.7012 118.069 10.9973 118.635 11.5896C119.201 12.1819 119.484 12.8953 119.484 13.7298C119.484 14.5644 119.201 15.2778 118.635 15.8701C118.069 16.4624 117.3 16.7585 116.33 16.7585Z" fill="#9798A8"/>
<path d="M133.146 40.7453C130.047 40.7453 127.594 39.8569 125.788 38.0801C123.983 36.2764 123.08 33.7727 123.08 30.5691C123.08 28.4154 123.524 26.5175 124.414 24.8753C125.303 23.2331 126.543 21.9543 128.133 21.039C129.723 20.1236 131.556 19.666 133.632 19.666C135.357 19.666 136.866 20.0025 138.16 20.6755C139.453 21.3486 140.504 22.3985 141.313 23.8253L137.796 26.4905C137.284 25.629 136.691 25.0099 136.017 24.633C135.37 24.2561 134.575 24.0676 133.632 24.0676C132.041 24.0676 130.734 24.6599 129.71 25.8444C128.713 27.029 128.214 28.5904 128.214 30.5287C128.214 32.4132 128.659 33.867 129.548 34.89C130.465 35.8861 131.772 36.3841 133.47 36.3841C134.359 36.3841 135.181 36.1822 135.936 35.7784C136.718 35.3746 137.364 34.7419 137.877 33.8804L141.313 36.6264C140.397 38.1071 139.238 39.1705 137.836 39.8166C136.435 40.4358 134.871 40.7453 133.146 40.7453Z" fill="#9798A8"/>
<path d="M143.988 40.3819V10.4993H148.92V28.3481L157.006 20.0294H162.949L153.448 29.8422C154.068 30.2191 154.607 30.7441 155.065 31.4171L157.168 34.5669C158.057 35.913 159.243 36.586 160.725 36.586C161.48 36.586 162.194 36.3976 162.868 36.0207L164 39.655C163.353 40.0589 162.679 40.3415 161.979 40.5031C161.305 40.6646 160.577 40.7453 159.795 40.7453C158.286 40.7184 157.006 40.4223 155.955 39.8569C154.931 39.2916 153.987 38.3493 153.125 37.0302L150.982 33.8804C150.254 32.7497 149.567 31.9825 148.92 31.5787V40.3819H143.988Z" fill="#9798A8"/>
</svg>
