<svg xmlns="http://www.w3.org/2000/svg" width="125" height="110" viewBox="0 0 125 110" fill="none"><path d="M15.3189 62.5661C16.8793 61.8931 16.1648 59.2286 14.4825 59.9064L9.08438 62.3206C7.52397 62.9935 8.23852 65.658 9.9208 64.9803C11.5983 64.1803 13.3977 63.3756 15.3189 62.5661Z" fill="#0C0D1F"></path><path d="M10.3581 66.7989C12.2841 66.1116 14.2054 65.3021 16.1218 64.3705C17.6775 63.5753 19.1089 65.8446 17.5533 66.6397C15.5245 67.8206 13.3643 68.7618 11.1946 69.4586C9.50749 70.0142 8.67107 67.3545 10.3581 66.7989Z" fill="#0C0D1F"></path><path fill-rule="evenodd" clip-rule="evenodd" d="M101.223 27.6294C99.0195 27.4708 96.6012 28.055 94.3048 28.6344C91.7645 22.9818 88.9805 17.3386 85.9622 11.9495C85.6685 11.3959 85.3635 10.7931 85.0443 10.1619C83.3583 6.82914 81.2726 2.70632 78.3272 0.866522C73.5717 -2.12938 68.4151 3.33494 65.6193 6.74872C63.8848 8.81343 62.1738 10.8925 60.4661 12.9676C50.3467 25.2641 40.3421 37.421 26.2511 45.6165C26.1925 45.68 26.1328 45.7129 26.073 45.7458C26.0133 45.7788 25.9536 45.8117 25.895 45.8752C21.1996 47.5275 16.5037 49.1799 11.9349 50.9497C11.2696 51.1922 10.5502 51.4249 9.80777 51.6651C7.19275 52.5109 4.29155 53.4493 2.46018 55.2367C-1.65705 59.1918 1.47592 67.5137 3.34948 71.7238C5.09638 75.8165 9.19954 83.978 14.0051 85.1362C15.36 85.4503 16.8129 85.1487 18.3829 84.7201C19.1829 86.2386 19.9751 87.7743 20.7702 89.3158C22.9891 93.6174 25.2309 97.9632 27.7291 102.1C27.9073 102.389 28.0866 102.685 28.2682 102.985C30.3438 106.414 32.7161 110.334 37.1372 108.585C42.1888 106.674 48.4423 101.167 46.7408 95.1145C46.1612 93.0528 44.5768 91.3713 43.056 89.7571C42.3444 89.0019 41.6467 88.2615 41.0724 87.5038C39.0125 84.7695 37.4353 81.894 35.8533 78.8963C36.2141 78.7599 36.6053 78.6222 36.9965 78.4845C37.3878 78.3468 37.7793 78.2091 38.1401 78.0725C47.6962 75.8628 57.4076 74.5037 67.2003 75.222C73.7327 75.6921 80.1602 76.9059 86.5527 78.1132C88.7843 78.5346 91.0116 78.9553 93.2377 79.3432C94.0072 79.4664 94.901 79.6672 95.8649 79.8836C100.286 80.8764 106.18 82.2001 108.316 77.8964C110.542 73.5022 108.077 66.2582 106.261 60.9208C105.858 59.7369 105.488 58.6467 105.207 57.7024C104.093 54.1968 102.98 50.6912 101.749 47.3126C102.158 47.0077 102.588 46.706 103.023 46.4C104.986 45.0212 107.072 43.5558 107.983 41.3166C109.092 38.4584 107.754 35.4512 106.43 32.8105C105.486 30.5222 103.918 27.8911 101.223 27.6294ZM10.896 77.4253C9.35707 75.5274 8.17894 73.493 7.11312 71.2094C6.05208 69.048 5.23 66.7548 4.76875 64.3252C3.59295 59.2311 6.42699 56.7949 10.757 55.1568C16.0475 53.114 21.3429 51.1934 26.643 49.395C29.6637 57.9661 32.9233 66.4054 36.3048 74.84C31.614 76.6146 26.7918 78.1495 21.9648 79.5622C17.5034 80.9606 14.1102 81.583 10.896 77.4253ZM40.0999 90.7238C40.3556 91.0198 40.6746 91.3744 40.9936 91.7291C41.3127 92.0838 41.6317 92.4384 41.8874 92.7344C44.473 96.4271 44.5639 98.7489 41.5292 102.294C40.7143 103.305 39.1682 104.345 38.0905 104.877C37.0128 105.408 36.2912 105.681 35.5647 105.832C36.0187 104.958 36.468 103.961 36.6735 102.974C37.2159 101.239 34.506 100.611 33.9636 102.346C33.7533 103.211 33.4164 103.958 32.9576 104.71L32.5777 104.358C32.451 104.241 32.3232 104.093 32.1954 103.945C32.0676 103.797 31.9396 103.649 31.813 103.531C31.813 103.531 31.8082 103.409 31.9301 103.404C32.04 103.094 32.1815 102.813 32.3231 102.532C32.4647 102.251 32.6063 101.97 32.7162 101.66C33.0531 100.913 33.273 100.292 33.488 99.5494C34.0304 97.8148 31.3206 97.1866 30.7782 98.9212C30.618 99.4742 30.3877 99.9621 30.1414 100.484C30.057 100.663 29.9705 100.846 29.8845 101.037C29.495 100.44 29.1007 99.7211 28.833 99.1197C29.1113 98.4358 29.3884 97.7215 29.6655 97.0071C29.9427 96.2925 30.2201 95.5775 30.4985 94.8934C30.8354 94.146 30.6848 93.4175 29.9393 93.0796C29.3156 92.7368 28.3454 92.8972 28.1303 93.6399C27.962 94.0133 27.7949 94.4172 27.6278 94.8212L27.6274 94.8222C27.4601 95.2264 27.2928 95.6309 27.1244 96.0046C26.9929 95.7649 26.8603 95.4948 26.7277 95.2246C26.595 94.9544 26.4624 94.6842 26.331 94.4446L25.9367 93.7257C26.0538 93.5988 26.1708 93.4718 26.1661 93.3496C26.4492 92.7878 26.7336 92.2565 27.0179 91.7253C27.3023 91.194 27.5866 90.6628 27.8698 90.1009C28.6607 88.479 26.2926 87.2254 25.5017 88.8474C25.3308 89.16 25.1612 89.5031 24.9916 89.8462C24.822 90.1893 24.6521 90.5329 24.4813 90.8455L23.2984 88.6888C23.3431 88.6404 23.3886 88.6097 23.4274 88.5835C23.4901 88.5411 23.5356 88.5104 23.5326 88.4349C23.762 88.0588 24.0219 87.6815 24.2817 87.3041C24.5416 86.9268 24.8014 86.5495 25.0308 86.1734C25.3725 85.5481 25.0953 84.7022 24.4716 84.3595C23.7261 84.0215 23.0044 84.2945 22.6627 84.9198C22.4333 85.2959 22.2039 85.6721 21.8526 86.053C21.6579 85.7546 21.4924 85.4245 21.3269 85.0945C21.1614 84.7644 20.9959 84.4343 20.8012 84.136C21.5228 83.863 22.2445 83.59 22.9709 83.4391C26.3498 82.4502 29.8458 81.3343 33.2152 80.101C33.3714 80.3689 33.5277 80.6375 33.6842 80.9066C35.6251 84.2425 37.6077 87.6503 40.0999 90.7238ZM90.2625 75.0538C88.741 74.787 87.2236 74.5112 85.708 74.2357C79.2664 73.0648 72.8594 71.9001 66.3208 71.4625C57.0204 70.8474 48.0402 72.1778 38.9621 74.1241C35.4492 65.4499 32.18 56.7662 29.0326 48.0777C43.8194 39.1769 55.0169 25.8884 65.6003 12.5015C66.0187 12.0063 66.4957 11.3527 67.0263 10.6257C68.123 9.12303 69.4488 7.30651 70.9577 5.92789C76.9654 14.1396 81.3208 24.2377 85.4156 33.7317L85.4188 33.7393C86.0693 35.2473 86.7131 36.74 87.356 38.2075C92.7185 50.4809 97.3882 63.7604 100.22 76.8671C97.9598 76.8716 95.2138 76.2041 92.9583 75.6559C91.9257 75.4049 90.9957 75.1788 90.2625 75.0538ZM105.453 73.3579C105.408 75.3178 104.466 76.2113 103.023 76.7574C100.05 63.1667 95.3567 49.2762 89.6141 36.6506C88.7598 34.7505 87.9116 32.8117 87.0554 30.8544C83.0881 21.7856 78.9481 12.3217 73.2206 4.49311C74.4202 3.95663 75.6341 3.78674 76.7549 4.35481C78.1338 5.03105 79.4121 7.66732 80.2508 9.39703L80.2521 9.39971C80.3969 9.69827 80.5285 9.96976 80.6453 10.1994C84.6959 17.0168 88.1514 24.2246 91.3632 31.442C95.2418 40.1019 98.6376 48.903 101.434 57.9724C101.705 58.7723 102.01 59.6219 102.327 60.5058C103.782 64.56 105.496 69.3373 105.453 73.3579ZM104.927 41.1915C104.151 42.3547 102.847 43.2786 101.604 44.1588C101.37 44.3246 101.138 44.4889 100.912 44.6529C99.2683 40.0667 97.3852 35.6121 95.5068 31.2798C96.0528 31.1973 96.5977 31.0842 97.1425 30.971C97.6873 30.8579 98.2322 30.7448 98.7782 30.6623C101.45 30.3129 102.453 31.008 103.89 33.3995L103.912 33.443C105.097 35.7164 106.648 38.692 104.927 41.1915Z" fill="#0C0D1F"></path><path d="M101.634 19.4136L101.328 11.593C101.261 9.88219 98.5794 9.98711 98.5245 11.7026L98.8305 19.5233C99.0193 21.2292 101.7 21.1243 101.634 19.4136Z" fill="#0C0D1F"></path><path d="M115.09 21.7636C114.421 22.585 113.751 23.4067 113.051 24.2293C111.885 25.6211 109.859 23.7423 111.025 22.3504C111.725 21.5275 112.395 20.7058 113.064 19.8841C113.734 19.0624 114.404 18.2407 115.104 17.4178C116.27 16.026 118.296 17.9048 117.13 19.2967C116.43 20.1193 115.761 20.9408 115.091 21.7622L115.09 21.7636Z" fill="#0C0D1F"></path><path d="M122.784 32.7824C120.708 32.7413 118.758 32.8176 116.686 32.8987C114.98 32.9655 115.085 35.6538 116.796 35.7092C117.834 35.7298 118.84 35.6904 119.845 35.6511C120.851 35.6118 121.856 35.5724 122.894 35.593C124.605 35.6484 124.495 32.8379 122.784 32.7824Z" fill="#0C0D1F"></path><path d="M111.668 48.1483C110.167 47.228 111.417 44.8538 112.918 45.7741C114.92 47.042 116.811 48.559 118.701 50.076C120.089 51.2455 118.216 53.277 116.827 52.1075C115.186 50.7031 113.422 49.3035 111.668 48.1483Z" fill="#0C0D1F"></path></svg>