<svg xmlns="http://www.w3.org/2000/svg" width="112" height="112" viewBox="0 0 112 112" fill="none"><path fill-rule="evenodd" clip-rule="evenodd" d="M36.5674 56.0209C36.1374 45.5627 44.3082 37.153 54.5217 36.2905C80.3243 33.1638 83.1195 75.32 56.6719 74.9966C46.1359 74.8888 37.105 66.8025 36.5674 56.0209ZM39.7928 56.0209C40.3303 64.8619 47.8561 71.7621 56.6719 71.7621C79.0341 71.7621 76.1313 36.9374 54.5217 39.525C46.0284 40.1719 39.2552 47.3956 39.7928 56.0209Z" fill="white"></path><path d="M48.6086 28.2043C50.5438 27.5574 52.479 27.2339 54.6292 27.2339C56.6719 27.2339 56.6719 23.9994 54.6292 23.9994C52.264 23.9994 50.0063 24.3229 47.7485 25.0776C45.8134 25.7245 46.5659 28.8512 48.6086 28.2043Z" fill="white"></path><path d="M71.0784 31.5466C69.7882 30.3606 68.2831 29.6059 66.5629 29.1746C64.5202 28.6355 65.3803 25.5088 67.3155 26.0479C69.5732 26.6948 71.6159 27.773 73.3361 29.2824C74.9488 30.5762 72.691 32.9482 71.0784 31.5466Z" fill="white"></path><path d="M85.5923 44.0533C84.8397 42.0048 83.8721 40.1719 82.582 38.4468C82.0444 37.7999 81.1844 37.3687 80.3243 37.9077C79.6792 38.339 79.2492 39.4172 79.7867 40.1719C80.8618 41.6813 81.8294 43.1907 82.4745 45.0236C83.2271 46.8565 86.3449 45.994 85.5923 44.0533Z" fill="white"></path><path d="M83.4421 62.9211C83.8721 61.0883 84.1946 59.2554 84.4097 57.3147C84.5172 55.2662 87.7425 55.2662 87.635 57.3147C87.42 59.471 87.0975 61.6274 86.5599 63.7837C86.0223 65.8322 82.9045 64.9697 83.4421 62.9211Z" fill="white"></path><path d="M80.0017 73.0559C79.3567 72.6246 78.1741 72.8403 77.744 73.595C76.9915 75.2122 75.8088 76.506 74.3037 77.3686C72.476 78.3389 74.0887 81.1422 75.9163 80.1718C77.959 79.0936 79.5717 77.2607 80.5393 75.2122C80.9693 74.4575 80.8618 73.4872 80.0017 73.0559Z" fill="white"></path><path d="M57.6395 83.8375C59.5747 83.6219 61.4024 83.4063 63.2301 83.0828C65.2728 82.6516 66.1329 85.7782 64.0902 86.2095C61.94 86.6408 59.7897 86.8564 57.6395 87.072C55.5968 87.2877 55.5968 84.0532 57.6395 83.8375Z" fill="white"></path><path d="M45.9209 81.8969C43.9857 81.3578 42.2655 80.4952 40.6528 79.3093C39.9003 78.7702 38.8252 79.2014 38.3951 79.8483C37.8576 80.7109 38.2876 81.5734 38.9327 82.1125C40.7603 83.4063 42.803 84.3766 44.9533 85.0235C47.1035 85.6704 47.9636 82.5438 45.9209 81.8969Z" fill="white"></path><path d="M26.5689 66.6947C26.0314 64.6462 29.1492 63.7837 29.6868 65.8322C30.2243 67.6651 30.9769 69.2823 32.052 70.6839C32.5895 71.3308 32.697 72.3012 32.052 72.9481C31.5144 73.4872 30.3318 73.595 29.7943 72.9481C28.2891 71.1152 27.214 69.0667 26.5689 66.6947Z" fill="white"></path><path d="M28.1816 54.0802C28.1816 52.1395 28.2891 50.1988 28.6116 48.2581C28.9342 46.2096 25.8164 45.3471 25.4938 47.3956C25.1713 49.6597 24.9563 51.8161 24.9563 54.0802C25.0638 56.1287 28.2891 56.1287 28.1816 54.0802Z" fill="white"></path><path d="M31.4069 35.7514C32.9121 33.9185 34.6323 32.4091 36.5674 31.2231C38.3951 30.0371 40.0078 32.8404 38.1801 34.0263C36.4599 35.1045 34.9548 36.3983 33.6646 38.0156C33.1271 38.6624 31.9445 38.5546 31.4069 38.0156C30.7619 37.3687 30.8694 36.3983 31.4069 35.7514Z" fill="white"></path><path fill-rule="evenodd" clip-rule="evenodd" d="M111.757 54.4875C111.724 55.309 111.693 56.0598 111.717 56.6678C111.736 57.1182 111.784 57.6306 111.835 58.1773L111.836 58.1792C112.079 60.773 112.394 64.1358 109.997 65.2931C107.717 66.7567 103.734 66.4353 100.478 66.1726C99.8962 66.1256 99.3377 66.0805 98.8161 66.0479C97.741 69.498 96.6659 72.8403 95.2683 76.1826C93.8343 79.598 94.3429 80.0163 96.2958 81.6226L96.2977 81.6243C96.687 81.9444 97.1335 82.3117 97.6335 82.7594L97.6985 82.8176C100.667 85.4751 102.24 86.8837 99.9987 90.63C98.0635 93.9723 94.3007 97.8537 90.9678 99.9022C87.7065 101.849 86.0716 99.8024 84.1998 97.4593C83.4801 96.5583 82.7251 95.6133 81.8294 94.8348C79.4881 92.6545 77.537 93.931 75.4197 95.3162C74.8149 95.7119 74.1961 96.1167 73.5511 96.4521C72.9103 96.8136 71.8516 97.1601 70.7365 97.5251C68.8584 98.1399 66.8201 98.8071 66.3479 99.6866C65.8829 100.619 66.2035 102.151 66.5283 103.702C66.8042 105.019 67.083 106.351 66.8855 107.342C66.4554 109.282 65.4878 110.468 63.5526 111.223C61.1737 112.177 58.0369 112.033 55.4092 111.913L55.4035 111.913C55.2323 111.905 55.0633 111.897 54.8967 111.89C54.7334 111.883 54.5724 111.876 54.4142 111.87C54.1061 111.87 53.7627 111.879 53.3958 111.888C51.2013 111.945 48.1626 112.023 46.7809 110.36C45.044 108.37 45.4706 104.975 45.8577 101.895C45.9738 100.971 46.0863 100.076 46.1359 99.2553C41.4054 98.6084 37.32 96.8833 33.5571 94.1879C33.2629 94.4948 32.961 94.8197 32.6511 95.1531C30.1307 97.8656 27.0893 101.139 23.4511 99.7944C19.7958 98.285 12.1625 91.816 10.9799 88.1502C10.109 85.5301 12.2265 83.5487 14.1577 81.7417C15.0874 80.8718 15.9738 80.0423 16.4629 79.2014C16.5825 78.9016 16.8684 78.6351 17.0986 78.4205C17.2823 78.2493 17.4305 78.1112 17.4305 78.0154C17.5086 77.6239 16.9062 76.6068 16.447 75.8315C16.274 75.5394 16.1211 75.2814 16.0329 75.1044C14.8503 72.409 13.9902 69.6058 13.2376 66.8025C13.0145 66.8334 12.7854 66.8659 12.5513 66.8991C9.51324 67.3302 5.63475 67.8805 3.23912 66.4791C0.911369 65.1719 0.760871 62.409 0.622644 59.8714C0.601252 59.4789 0.580156 59.0918 0.551349 58.7163C0.512994 58.3444 0.462467 57.9237 0.407511 57.4667L0.406822 57.4607C-1.74942e-05 54.0751 -0.645548 48.7037 1.62646 46.4252C4.09919 44.0533 9.04469 44.4846 12.5926 45.3471C13.7752 40.711 15.7104 36.6139 18.5056 32.8404C17.9839 32.303 17.4382 31.7731 16.8953 31.246C13.299 27.754 9.829 24.3847 14.3127 19.7946C14.7038 19.3853 15.1298 18.9141 15.5857 18.4098C18.0124 15.7255 21.285 12.1055 24.6337 11.924C27.9114 11.8301 30.2102 14.6811 32.2407 17.1993C32.5413 17.5721 32.836 17.9376 33.1271 18.2851C36.0299 16.4523 38.9327 15.0506 42.158 13.8646C42.6691 13.6758 43.0793 13.5545 43.4154 13.455C44.4227 13.1571 44.7653 13.0557 45.1683 11.924C45.5596 10.8121 45.3575 9.50194 45.1619 8.23406C45.0351 7.41191 44.911 6.6072 44.9533 5.88623C45.1336 1.00185 48.8705 0.822233 52.7357 0.636429C53.4777 0.600763 54.2245 0.564865 54.9518 0.495407C55.6352 0.446448 56.353 0.365375 57.0837 0.282854C61.1811 -0.179828 65.6831 -0.688146 66.7779 4.16116C66.9938 5.13509 66.9117 6.16334 66.8308 7.17774C66.7505 8.18457 66.6712 9.17814 66.8855 10.0911C67.3763 12.2569 67.7775 12.4451 69.5624 13.2823C69.6766 13.3359 69.7966 13.3922 69.9225 13.4517C69.9838 13.4808 70.0465 13.5105 70.1107 13.5412C71.2466 14.0729 72.369 14.5373 73.478 14.9963L73.4849 14.9993C75.523 15.8428 77.5161 16.6677 79.4642 17.8539C79.7652 17.5143 80.0822 17.144 80.4135 16.757C82.9223 13.8264 86.2462 9.9437 89.5702 11.2771C91.2478 11.9653 92.8713 13.7383 94.3257 15.3266L94.3266 15.3276C94.9223 15.9782 95.4897 16.5979 96.0208 17.0991C96.4604 17.5141 96.9747 17.9414 97.5112 18.3873L97.5124 18.3883C99.2062 19.796 101.122 21.3878 101.611 23.3525C102.041 24.8619 101.504 26.0479 100.644 27.3417C100.135 28.1071 98.8076 28.9931 97.5047 29.8628C96.0545 30.8309 94.6347 31.7786 94.4082 32.5169C94.1936 33.1626 94.8834 34.2857 95.4958 35.2826C95.8037 35.7838 96.092 36.2532 96.2359 36.6139C96.904 38.222 97.3645 39.9549 97.8238 41.6834C98.1036 42.7363 98.383 43.7876 98.7086 44.808C99.368 44.828 100.094 44.8294 100.855 44.8309C104.187 44.8374 108.179 44.8452 110.105 46.4252C112.02 48.0116 111.871 51.6671 111.757 54.4875ZM100.757 63.2408C102.76 63.3738 104.92 63.5171 106.449 63.029C108.907 62.2073 108.744 60.1485 108.571 57.9658C108.54 57.5709 108.509 57.172 108.492 56.7756C108.471 56.1259 108.495 55.4639 108.518 54.8111C108.616 52.1058 108.707 49.558 105.589 48.6894C103.945 48.1876 102.016 48.1624 100.181 48.1385H100.179C99.2549 48.1264 98.3542 48.1147 97.526 48.0425C96.8809 47.9347 96.2359 47.6112 96.0208 46.8565C95.5908 45.6166 95.2145 44.3228 94.8382 43.029L94.8377 43.0271C94.4616 41.7339 94.0854 40.4408 93.6556 39.2015C93.3182 38.2429 92.8632 37.4023 92.4136 36.5716C92.0036 35.8141 91.5981 35.0648 91.2904 34.242C90.6453 32.5169 90.7528 31.6544 92.043 30.2528C92.6784 29.5664 93.5362 29.0585 94.3838 28.5565C95.4003 27.9545 96.4021 27.3611 96.9884 26.4792C98.808 23.5595 96.316 21.4891 94.1385 19.68C93.7429 19.3514 93.3577 19.0313 93.0105 18.7164C92.5499 18.2775 92.1238 17.809 91.7121 17.3563C90.2023 15.6961 88.8869 14.2496 86.7749 15.2663C85.387 15.9989 83.9991 17.6274 82.7123 19.1372C82.1054 19.8494 81.5206 20.5355 80.9693 21.0884C80.3243 21.7353 79.6792 21.7353 79.1417 21.4118C79.1007 21.3912 79.0635 21.3746 79.0296 21.3604C79.0133 21.3536 78.9977 21.3473 78.9827 21.3414L78.9371 21.3237C78.8452 21.2886 78.7781 21.2628 78.7116 21.1962C75.4382 19.0077 72.0733 17.8288 68.4481 16.5587L68.4222 16.5496C68.1267 16.4461 67.8295 16.342 67.5305 16.2366C67.4689 16.2146 67.4082 16.1931 67.3484 16.172C67.263 16.1419 67.1794 16.1127 67.0974 16.0841L67.0952 16.0833C65.8332 15.6426 64.9719 15.3419 64.1977 14.0803C63.5168 12.8512 63.6552 11.6221 63.7937 10.393C63.8738 9.68139 63.954 8.9698 63.8751 8.25821C63.8452 7.74768 63.8736 7.26227 63.9 6.81127C63.9685 5.64301 64.0234 4.70567 63.0151 4.16116C61.94 3.51429 60.9724 3.29864 59.0372 3.40647C58.1812 3.46372 57.2648 3.55134 56.368 3.63708L56.3662 3.63728C55.5744 3.71299 54.7972 3.78719 54.0917 3.83772C53.8382 3.86082 53.5799 3.8802 53.3198 3.89971C51.1521 4.06245 48.862 4.23434 48.2861 6.64096C48.1077 7.3566 48.2582 8.17121 48.4102 8.99359C48.533 9.65793 48.6567 10.3273 48.6086 10.9536C48.5958 11.1076 48.5846 11.2677 48.573 11.4319C48.4874 12.6473 48.386 14.088 47.5335 14.9428C46.9888 15.5801 46.0608 15.9099 45.2674 16.1919L45.2609 16.1941L45.1793 16.2232L45.0594 16.2661L44.9687 16.299C44.9271 16.3142 44.8861 16.3293 44.8458 16.3444C44.6378 16.4256 44.43 16.5064 44.2226 16.5871C40.5715 18.0076 37.0218 19.3888 33.6646 21.7353C32.8046 22.3822 31.837 21.8431 31.5144 20.9805C31.192 20.6054 30.8819 20.2273 30.5776 19.856C28.3448 17.1326 26.4186 14.7832 22.161 16.7757C20.5483 17.4226 17.6455 20.5493 16.678 21.9509C14.6839 24.8672 17.3772 27.3327 19.7956 29.5466C20.5065 30.1974 21.1936 30.8264 21.731 31.4388C22.161 31.87 22.376 32.8404 21.946 33.3794C18.6131 37.6921 16.4629 42.2204 15.2803 47.5034C15.1728 48.3659 14.2052 48.7972 13.3451 48.5816C11.84 48.2581 6.89447 47.2878 5.28181 48.2581C4.06838 49.1006 3.82743 50.9183 3.64425 52.3001C3.61646 52.5098 3.58998 52.7095 3.56164 52.8942C3.23912 55.374 3.56164 58.5007 3.9917 61.0883C4.59199 64.1987 6.12345 64.1344 8.75934 64.0236L8.7617 64.0235L8.76534 64.0233C8.95994 64.0151 9.16054 64.0067 9.36724 63.9993C10.9917 63.9993 12.5203 63.807 14.1342 63.6039L14.4202 63.5681C15.0653 63.4602 15.8179 64.1071 15.9254 64.754C16.3554 66.9104 17.0005 69.0667 17.7531 71.223C18.0683 72.0812 18.5157 72.9583 18.9686 73.8463C19.5969 75.0782 20.236 76.3312 20.5483 77.5842C20.9435 79.3677 20.5216 79.7853 19.3659 80.9291C19.303 80.9914 19.2379 81.0558 19.1706 81.1227L19.1003 81.1928L19.0432 81.2499C18.7373 81.5311 18.3589 81.8427 17.9523 82.1773C16.6444 83.2539 15.0453 84.5702 14.6353 85.8861C13.9993 88.0726 15.8967 89.7203 17.4732 91.0892L17.474 91.09C17.6877 91.2755 17.8955 91.456 18.0901 91.6319C18.1587 91.6938 18.2256 91.7551 18.2906 91.816C18.5371 92.0631 18.7992 92.3383 19.0755 92.6283C20.9686 94.6151 23.5257 97.2988 26.2464 96.4521C27.545 96.0691 29.2777 94.1622 30.6733 92.6261L30.6741 92.6253L30.675 92.6243L30.677 92.6221C31.2444 91.9977 31.7557 91.435 32.1595 91.0612C32.697 90.63 33.2346 90.5222 33.7721 90.7378L34.4172 91.0612C38.3951 94.0801 42.6956 95.913 47.641 96.3442C48.6086 96.4521 49.1462 96.9912 49.2537 97.9615C49.3356 99.6846 49.2304 101.408 49.128 103.083V103.087C49.1126 103.341 49.0972 103.593 49.0825 103.844C49.0668 104.113 49.0519 104.38 49.0387 104.646C48.9322 108.702 50.4061 108.743 54.1903 108.848L54.3067 108.851C58.7146 108.959 63.4451 108.959 63.4451 103.46C63.4451 102.63 63.3745 101.818 63.3048 101.016C63.2025 99.8389 63.1022 98.6846 63.2301 97.5302C63.2301 97.099 63.7676 96.5599 64.3052 96.4521C68.4981 95.6974 71.6159 94.0801 75.2713 92.0316C75.5521 91.8799 75.8503 91.7022 76.1615 91.5167C77.399 90.7789 78.8422 89.9186 80.2168 90.0909C82.0922 90.2619 83.4269 91.9919 84.596 93.5073C84.9013 93.9031 85.1953 94.2843 85.4848 94.6192C85.6857 94.8516 85.8732 95.0796 86.0528 95.2981L86.0541 95.2995C87.1238 96.6 87.9138 97.5604 89.5702 97.099C90.36 96.835 91.3647 95.7808 92.1165 94.9918C92.2138 94.8897 92.3073 94.7917 92.3951 94.7007C92.4365 94.6578 92.4768 94.6164 92.5158 94.5768L92.55 94.5421L92.5805 94.5114L92.7135 94.3885C94.2307 92.987 98.2528 89.2717 97.4185 87.1798C96.9901 86.0138 95.6909 85.1272 94.3932 84.2417C93.4111 83.5716 92.43 82.9021 91.8279 82.1125C90.6453 80.4952 90.3228 79.4171 91.0753 77.4764C91.7432 75.6456 92.5033 73.8518 93.264 72.0567L93.2658 72.0522C94.3411 69.5147 95.4177 66.974 96.2359 64.3228C96.2359 64.1072 96.3314 63.9874 96.4269 63.8676C96.4747 63.8077 96.5226 63.7478 96.5584 63.6759C96.7734 63.3524 97.2035 63.1368 97.741 63.1368C98.6144 63.0987 99.6622 63.1682 100.757 63.2408Z" fill="white"></path></svg>