<svg width="198" height="57" viewBox="0 0 198 57" fill="none" xmlns="http://www.w3.org/2000/svg">
<path d="M20.34 28.64C20.34 30.128 19.512 31.592 17.856 33.032C16.224 34.472 14.232 35.624 11.88 36.488C9.552 37.328 7.332 37.748 5.22 37.748C4.308 37.748 3.24 37.196 2.016 36.092C0.792 34.964 0.18 34.04 0.18 33.32C0.18 32.912 0.264 32.588 0.432 32.348C0.624 32.108 0.84 31.988 1.08 31.988C1.32 31.988 1.848 32.192 2.664 32.6C3.504 32.984 4.128 33.176 4.536 33.176C4.968 33.176 5.388 33.14 5.796 33.068C5.196 32.828 4.596 32.408 3.996 31.808C3.396 31.208 3.096 30.632 3.096 30.08C3.096 29.84 3.492 28.1 4.284 24.86C5.076 21.596 5.496 18.812 5.544 16.508C5.112 16.1 4.716 15.608 4.356 15.032C4.02 14.432 3.852 13.988 3.852 13.7C3.852 13.028 4.38 12.488 5.436 12.08C6.492 11.672 7.812 11.468 9.396 11.468C12.756 11.468 15.444 11.912 17.46 12.8C19.5 13.688 20.52 15.104 20.52 17.048C20.52 18.272 20.004 19.52 18.972 20.792C17.94 22.064 16.584 23.228 14.904 24.284L15.264 24.392C16.704 24.776 17.904 25.352 18.864 26.12C19.848 26.864 20.34 27.704 20.34 28.64ZM13.968 16.076C13.224 16.076 11.472 16.34 8.712 16.868C9.576 17.828 10.008 18.632 10.008 19.28C10.008 19.904 9.804 21.068 9.396 22.772C9.78 22.484 10.464 22.064 11.448 21.512C12.432 20.96 13.044 20.6 13.284 20.432C13.548 20.24 13.896 19.964 14.328 19.604C15.144 18.956 15.552 18.212 15.552 17.372C15.552 16.508 15.024 16.076 13.968 16.076ZM15.804 28.496C15.804 28.016 15.108 27.608 13.716 27.272C12.348 26.912 11.208 26.732 10.296 26.732C9.792 26.732 9.252 26.36 8.676 25.616C7.596 30.056 6.948 32.492 6.732 32.924C8.748 32.492 10.764 31.832 12.78 30.944C14.796 30.056 15.804 29.24 15.804 28.496ZM36.0008 19.892C36.1928 19.292 36.5768 18.992 37.1528 18.992C37.7288 18.992 38.3888 19.484 39.1328 20.468C39.9008 21.452 40.2848 22.304 40.2848 23.024C40.2848 23.288 39.7328 25.052 38.6288 28.316C37.5248 31.58 36.6728 34.16 36.0728 36.056C35.7368 37.064 35.1728 37.568 34.3808 37.568C33.9008 37.568 33.4928 37.4 33.1568 37.064C32.8448 36.704 32.6888 36.152 32.6888 35.408C32.6888 34.664 32.8328 33.608 33.1208 32.24C30.6488 35.792 28.6808 37.568 27.2168 37.568C26.4488 37.568 25.5248 37.076 24.4448 36.092C23.3648 35.084 22.8248 34.112 22.8248 33.176C22.8248 30.872 23.4728 27.932 24.7688 24.356C26.0888 20.78 27.3248 18.992 28.4768 18.992C29.1728 18.992 29.7848 19.304 30.3128 19.928C30.8648 20.552 31.1408 21.236 31.1408 21.98C31.1408 22.268 30.8408 23.072 30.2408 24.392C28.4168 28.352 27.5048 31.148 27.5048 32.78C27.5048 32.924 27.5648 32.996 27.6848 32.996C28.0448 32.996 28.7168 32.432 29.7008 31.304C30.7088 30.152 31.8248 28.52 33.0488 26.408C34.2968 24.272 35.2808 22.1 36.0008 19.892ZM52.3567 19.028C53.2687 19.028 54.1687 19.568 55.0567 20.648C55.9447 21.728 56.3887 22.7 56.3887 23.564C56.3887 24.14 56.1367 24.428 55.6327 24.428C55.3447 24.428 54.9247 24.32 54.3727 24.104C53.8207 23.864 53.2567 23.744 52.6807 23.744C52.1287 23.744 51.3007 23.936 50.1967 24.32C49.1167 24.704 48.5767 25.208 48.5767 25.832C48.5767 26.072 48.9007 26.42 49.5487 26.876C50.1967 27.332 50.9047 27.8 51.6727 28.28C52.4407 28.76 53.1487 29.432 53.7967 30.296C54.4447 31.136 54.7687 32.06 54.7687 33.068C54.7687 34.052 54.0367 35.048 52.5727 36.056C51.1327 37.064 49.4287 37.568 47.4607 37.568C45.5167 37.568 43.8487 37.124 42.4567 36.236C41.0647 35.348 40.3687 34.436 40.3687 33.5C40.3687 32.564 40.7527 32.096 41.5207 32.096C41.8327 32.096 42.2047 32.216 42.6367 32.456C43.8367 33.152 45.3247 33.5 47.1007 33.5C48.9007 33.5 49.8007 33.26 49.8007 32.78C49.8007 32.3 49.4527 31.772 48.7567 31.196C48.0847 30.596 47.3407 30.044 46.5247 29.54C45.7327 29.036 44.9887 28.424 44.2927 27.704C43.6207 26.96 43.2847 26.24 43.2847 25.544C43.2847 24.248 44.4607 22.844 46.8127 21.332C49.1647 19.796 51.0127 19.028 52.3567 19.028Z" fill="#0C0D1F"/>
<path d="M62.8973 11.108C63.4973 11.108 64.2533 11.54 65.1653 12.404C66.1013 13.268 66.5693 14.12 66.5693 14.96C66.5693 15.776 66.1373 17.912 65.2733 21.368C64.4093 24.824 63.9773 27.212 63.9773 28.532C63.9773 29.828 64.1333 30.824 64.4453 31.52C64.7813 32.216 65.2373 32.564 65.8133 32.564C66.4133 32.564 67.1093 32.144 67.9013 31.304C68.6933 30.44 69.4493 29.336 70.1693 27.992C70.9133 26.624 71.5253 25.004 72.0053 23.132C72.5093 21.236 72.7613 19.484 72.7613 17.876C72.7613 16.244 72.6773 14.936 72.5093 13.952C72.3653 12.968 72.2933 12.38 72.2933 12.188C72.2933 11.444 72.6053 11.072 73.2293 11.072C73.9973 11.072 74.9813 11.72 76.1813 13.016C77.4053 14.312 78.0173 15.86 78.0173 17.66C78.0173 19.436 77.7053 21.488 77.0813 23.816C76.4573 26.12 75.6173 28.304 74.5613 30.368C73.5053 32.432 72.1613 34.148 70.5293 35.516C68.9213 36.884 67.2653 37.568 65.5613 37.568C63.8813 37.568 62.3573 36.68 60.9893 34.904C59.6213 33.128 58.9373 31.316 58.9373 29.468C58.9373 27.62 59.1773 25.484 59.6573 23.06C60.1373 20.612 60.6173 18.416 61.0973 16.472C61.5773 14.528 61.8173 13.148 61.8173 12.332C61.8173 11.516 62.1773 11.108 62.8973 11.108ZM92.1555 19.028C93.0435 19.028 93.9915 19.82 94.9995 21.404C96.0315 22.988 96.5475 24.572 96.5475 26.156C96.5475 27.116 96.1395 28.256 95.3235 29.576C94.5075 30.896 93.4755 32.144 92.2275 33.32C91.0035 34.472 89.5755 35.456 87.9435 36.272C86.3355 37.088 84.7995 37.496 83.3355 37.496H82.9035C81.3915 43.784 80.3235 46.928 79.6995 46.928C79.1955 46.928 78.6675 46.508 78.1155 45.668C77.5395 44.828 77.2515 44.132 77.2515 43.58C77.2515 43.028 77.5995 41.336 78.2955 38.504C80.3595 30.104 81.3915 23.768 81.3915 19.496C81.3915 18.776 81.7395 18.416 82.4355 18.416C83.0115 18.416 83.7435 18.74 84.6315 19.388C85.5195 20.036 86.0715 20.876 86.2875 21.908C88.3275 19.988 90.2835 19.028 92.1555 19.028ZM84.0195 33.212C85.8915 32.852 87.6555 31.82 89.3115 30.116C90.9915 28.412 91.8315 26.936 91.8315 25.688C91.8315 24.44 91.4835 23.816 90.7875 23.816C89.7795 23.816 88.7115 24.392 87.5835 25.544C87.1275 26.024 86.6235 26.732 86.0715 27.668C85.5195 28.604 85.0395 29.696 84.6315 30.944L84.0195 33.212Z" fill="#FA7161"/>
<path d="M128.533 30.7757C129.14 30.7757 129.719 30.6591 130.269 30.4257C130.82 30.1831 131.282 29.8517 131.655 29.4317L132.355 30.1597C131.87 30.6637 131.291 31.0604 130.619 31.3497C129.947 31.6297 129.243 31.7697 128.505 31.7697C127.796 31.7697 127.129 31.6391 126.503 31.3777C125.887 31.1164 125.351 30.7617 124.893 30.3137C124.436 29.8564 124.077 29.3197 123.815 28.7037C123.554 28.0784 123.423 27.4157 123.423 26.7157C123.423 26.0157 123.554 25.3577 123.815 24.7417C124.077 24.1164 124.436 23.5797 124.893 23.1317C125.351 22.6744 125.887 22.3151 126.503 22.0537C127.129 21.7924 127.796 21.6617 128.505 21.6617C129.261 21.6617 129.975 21.8064 130.647 22.0957C131.329 22.3757 131.907 22.7677 132.383 23.2717L131.669 24.0277C131.287 23.5984 130.811 23.2624 130.241 23.0197C129.681 22.7771 129.103 22.6557 128.505 22.6557C127.945 22.6557 127.418 22.7631 126.923 22.9777C126.438 23.1831 126.018 23.4677 125.663 23.8317C125.309 24.1864 125.029 24.6157 124.823 25.1197C124.618 25.6144 124.515 26.1464 124.515 26.7157C124.515 27.2851 124.618 27.8217 124.823 28.3257C125.029 28.8204 125.309 29.2497 125.663 29.6137C126.027 29.9684 126.452 30.2531 126.937 30.4677C127.432 30.6731 127.964 30.7757 128.533 30.7757ZM143.347 26.7157C143.347 27.4157 143.217 28.0784 142.955 28.7037C142.694 29.3197 142.335 29.8564 141.877 30.3137C141.429 30.7617 140.897 31.1164 140.281 31.3777C139.665 31.6391 139.007 31.7697 138.307 31.7697C137.607 31.7697 136.945 31.6391 136.319 31.3777C135.703 31.1164 135.167 30.7617 134.709 30.3137C134.261 29.8564 133.907 29.3197 133.645 28.7037C133.384 28.0784 133.253 27.4157 133.253 26.7157C133.253 26.0157 133.384 25.3577 133.645 24.7417C133.907 24.1164 134.261 23.5797 134.709 23.1317C135.167 22.6744 135.703 22.3151 136.319 22.0537C136.945 21.7924 137.607 21.6617 138.307 21.6617C139.007 21.6617 139.665 21.7924 140.281 22.0537C140.897 22.3151 141.429 22.6744 141.877 23.1317C142.335 23.5797 142.694 24.1164 142.955 24.7417C143.217 25.3577 143.347 26.0157 143.347 26.7157ZM142.255 26.7157C142.255 26.1464 142.153 25.6144 141.947 25.1197C141.742 24.6157 141.462 24.1864 141.107 23.8317C140.762 23.4677 140.347 23.1831 139.861 22.9777C139.376 22.7631 138.858 22.6557 138.307 22.6557C137.747 22.6557 137.225 22.7631 136.739 22.9777C136.254 23.1831 135.834 23.4677 135.479 23.8317C135.134 24.1864 134.859 24.6157 134.653 25.1197C134.448 25.6144 134.345 26.1464 134.345 26.7157C134.345 27.2851 134.448 27.8171 134.653 28.3117C134.859 28.8064 135.134 29.2357 135.479 29.5997C135.834 29.9637 136.254 30.2531 136.739 30.4677C137.225 30.6731 137.747 30.7757 138.307 30.7757C138.858 30.7757 139.376 30.6731 139.861 30.4677C140.347 30.2531 140.762 29.9637 141.107 29.5997C141.462 29.2357 141.742 28.8064 141.947 28.3117C142.153 27.8171 142.255 27.2851 142.255 26.7157ZM143.508 31.6157L147.582 21.8157H148.884L152.902 31.6157H151.726L150.494 28.5357H145.874L144.628 31.6157H143.508ZM146.252 27.6117H150.116L148.198 22.8237L146.252 27.6117ZM158.174 30.7757C158.781 30.7757 159.359 30.6591 159.91 30.4257C160.461 30.1831 160.923 29.8517 161.296 29.4317L161.996 30.1597C161.511 30.6637 160.932 31.0604 160.26 31.3497C159.588 31.6297 158.883 31.7697 158.146 31.7697C157.437 31.7697 156.769 31.6391 156.144 31.3777C155.528 31.1164 154.991 30.7617 154.534 30.3137C154.077 29.8564 153.717 29.3197 153.456 28.7037C153.195 28.0784 153.064 27.4157 153.064 26.7157C153.064 26.0157 153.195 25.3577 153.456 24.7417C153.717 24.1164 154.077 23.5797 154.534 23.1317C154.991 22.6744 155.528 22.3151 156.144 22.0537C156.769 21.7924 157.437 21.6617 158.146 21.6617C158.902 21.6617 159.616 21.8064 160.288 22.0957C160.969 22.3757 161.548 22.7677 162.024 23.2717L161.31 24.0277C160.927 23.5984 160.451 23.2624 159.882 23.0197C159.322 22.7771 158.743 22.6557 158.146 22.6557C157.586 22.6557 157.059 22.7631 156.564 22.9777C156.079 23.1831 155.659 23.4677 155.304 23.8317C154.949 24.1864 154.669 24.6157 154.464 25.1197C154.259 25.6144 154.156 26.1464 154.156 26.7157C154.156 27.2851 154.259 27.8217 154.464 28.3257C154.669 28.8204 154.949 29.2497 155.304 29.6137C155.668 29.9684 156.093 30.2531 156.578 30.4677C157.073 30.6731 157.605 30.7757 158.174 30.7757ZM163.63 31.6157V21.8157H164.708V26.1977H170.406V21.8157H171.484V31.6157H170.406V27.1637H164.708V31.6157H163.63ZM173.637 31.6157V21.8157H174.715V31.6157H173.637ZM176.878 21.8157H177.956L183.85 29.7677V21.8157H184.872V31.6157H183.92L177.9 23.4537V31.6157H176.878V21.8157ZM196.388 26.9257C196.388 27.6071 196.267 28.2464 196.024 28.8437C195.781 29.4317 195.445 29.9404 195.016 30.3697C194.587 30.7991 194.083 31.1397 193.504 31.3917C192.925 31.6437 192.3 31.7697 191.628 31.7697C190.928 31.7697 190.265 31.6391 189.64 31.3777C189.024 31.1071 188.487 30.7477 188.03 30.2997C187.582 29.8424 187.223 29.3057 186.952 28.6897C186.691 28.0737 186.56 27.4157 186.56 26.7157C186.56 26.0157 186.691 25.3577 186.952 24.7417C187.213 24.1257 187.568 23.5937 188.016 23.1457C188.473 22.6884 189.01 22.3291 189.626 22.0677C190.251 21.7971 190.914 21.6617 191.614 21.6617C192.37 21.6617 193.084 21.8064 193.756 22.0957C194.428 22.3757 195.002 22.7677 195.478 23.2717L194.75 24.0137C194.377 23.5844 193.91 23.2531 193.35 23.0197C192.79 22.7771 192.211 22.6557 191.614 22.6557C191.054 22.6557 190.531 22.7631 190.046 22.9777C189.561 23.1831 189.141 23.4677 188.786 23.8317C188.441 24.1864 188.165 24.6157 187.96 25.1197C187.755 25.6144 187.652 26.1464 187.652 26.7157C187.652 27.2851 187.755 27.8217 187.96 28.3257C188.165 28.8204 188.441 29.2497 188.786 29.6137C189.141 29.9684 189.561 30.2531 190.046 30.4677C190.531 30.6731 191.054 30.7757 191.614 30.7757C192.109 30.7757 192.571 30.6917 193 30.5237C193.439 30.3557 193.817 30.1271 194.134 29.8377C194.461 29.5391 194.727 29.1844 194.932 28.7737C195.137 28.3631 195.259 27.9197 195.296 27.4437H191.782V26.4917H196.388V26.9257Z" fill="#0C0D1F"/>
<path d="M109.697 30.0557C108.877 30.0557 108.167 29.7657 107.567 29.1857C106.987 28.5857 106.697 27.8757 106.697 27.0557C106.697 26.2157 106.987 25.4957 107.567 24.8957C108.167 24.2957 108.877 23.9957 109.697 23.9957C110.537 23.9957 111.257 24.2957 111.857 24.8957C112.457 25.4957 112.757 26.2157 112.757 27.0557C112.757 27.8757 112.457 28.5857 111.857 29.1857C111.277 29.7657 110.557 30.0557 109.697 30.0557Z" fill="#0C0D1F"/>
</svg>
