<svg width="204" height="87" fill="none" xmlns="http://www.w3.org/2000/svg"><path fill-rule="evenodd" clip-rule="evenodd" d="M194.902 42.887C172.062 13.354 130.62 2.501 94.604 5.714c-18.24 1.618-37.06 8.597-46.459 25.336-2.458 4.394-4.112 9.289-4.595 14.271 4.869-1.203 9.895-1.218 14.582.957 7.085 3.257 11.524 12.956 7.26 20.043-4.465 7.49-14.886 6.229-20.24.738-4.239-4.286-6.34-9.414-6.864-14.822-4.238 2.058-8.103 4.715-10.763 6.857C20.24 64.912 14.338 72.107 9.13 79.767l.47-.335c.172-.122.29-.207.327-.231 4.706-2.61 13.747-6.778 19.034-3.796.683.417 1.063.935.98 1.764l-.069.953c-.037 1.2-1.686 1.599-2.307.67-2.435-3.726-12.865 2.862-17.178 5.587-.668.422-1.188.75-1.51.935l-.11.065c-2.025 1.189-4.317 2.536-6.458.767C.431 84.51.795 81.287 1.076 78.803c.069-.604.132-1.165.157-1.649l.16-2.922c.282-5.251.566-10.527 1.126-15.748.313-2.998 4.683-2.293 4.548.62-.079 3.444-.33 6.91-.58 10.356-.117 1.607-.234 3.21-.332 4.805-.012.237-.077.705-.159 1.296l-.025.176c6.377-9.098 13.76-17.583 23.114-23.702 2.772-1.82 5.882-3.583 9.159-4.944.929-12.514 9.046-25.569 17.868-32.662 19.363-15.609 48.14-15.54 71.47-11.76 26.767 4.377 52.821 16.506 69.152 38.713a3.17 3.17 0 01.719-.392c.394-.38 1.016-.664 1.592-.588.287-.05.592-.074.916-.066 4.028-.006 4.563 5.214 3.088 7.981a5.973 5.973 0 01-1.239 1.578c-.659 1.069-1.619 1.956-2.969 1.977-.878.026-1.595-.302-2.156-.834a4.908 4.908 0 01-1.526-.903c-2.18-1.899-2.655-5.495-.257-7.248zM44.195 55.031a28.048 28.048 0 01-.734-4.892c6.142-1.96 12.373-1.896 16.449 3.216 4.416 5.547 2.13 14.838-6.199 13.186-5.424-1.075-8.322-6.563-9.516-11.51z" fill="#0C0D1F"/></svg>