<svg width="164" height="37" fill="none" xmlns="http://www.w3.org/2000/svg"><path d="M56.948 27.652c-.991 0-1.858-.185-2.602-.555a4.684 4.684 0 01-1.805-1.56l-.372 1.798h-3.026V8.3h3.398v7.798c.425-.581.982-1.092 1.672-1.533.708-.44 1.62-.66 2.735-.66 1.239 0 2.345.299 3.318.898a6.452 6.452 0 012.31 2.458c.566 1.04.85 2.221.85 3.543s-.284 2.503-.85 3.542a6.504 6.504 0 01-2.31 2.432c-.973.582-2.08.873-3.318.873zm-.717-2.961c1.08 0 1.973-.361 2.681-1.084.708-.723 1.062-1.657 1.062-2.802 0-1.146-.354-2.088-1.062-2.829-.708-.74-1.601-1.11-2.681-1.11-1.097 0-2 .37-2.708 1.11-.69.723-1.035 1.657-1.035 2.803 0 1.145.345 2.088 1.035 2.828.708.723 1.61 1.084 2.708 1.084zm15.832 2.961c-1.328 0-2.505-.282-3.531-.846a6.136 6.136 0 01-2.416-2.38c-.584-1.022-.876-2.202-.876-3.542 0-1.357.283-2.564.85-3.622.583-1.057 1.38-1.877 2.388-2.458 1.027-.6 2.23-.899 3.611-.899 1.292 0 2.433.282 3.425.846a5.968 5.968 0 012.31 2.326c.566.97.849 2.054.849 3.252 0 .194-.01.397-.027.608 0 .212-.009.432-.026.661H68.61c.071 1.022.425 1.824 1.062 2.406.655.581 1.443.872 2.363.872.69 0 1.265-.15 1.725-.45a2.928 2.928 0 001.062-1.215h3.452a6.249 6.249 0 01-1.248 2.273 5.995 5.995 0 01-2.124 1.586c-.832.388-1.779.582-2.84.582zm.026-10.998c-.832 0-1.566.238-2.203.714-.638.458-1.045 1.163-1.222 2.115h6.558c-.053-.864-.372-1.55-.956-2.062-.584-.511-1.31-.767-2.177-.767zm13.185 10.998c-1.133 0-2.062-.177-2.787-.529-.726-.37-1.266-.855-1.62-1.454-.354-.6-.53-1.26-.53-1.983 0-1.216.477-2.203 1.433-2.96.955-.758 2.389-1.137 4.3-1.137h3.345v-.317c0-.9-.256-1.56-.77-1.983-.513-.423-1.15-.635-1.91-.635-.691 0-1.293.168-1.806.503-.513.317-.832.793-.956 1.427h-3.318c.088-.951.407-1.78.955-2.485a5.42 5.42 0 012.177-1.612c.885-.388 1.876-.582 2.974-.582 1.876 0 3.354.467 4.433 1.401 1.08.934 1.62 2.256 1.62 3.966v8.063H89.92l-.32-2.115a4.857 4.857 0 01-1.646 1.745c-.69.458-1.584.687-2.681.687zm.77-2.644c.973 0 1.725-.317 2.256-.951.55-.635.894-1.42 1.036-2.353h-2.894c-.902 0-1.548.167-1.938.502-.39.317-.584.714-.584 1.19 0 .51.195.907.584 1.19.39.281.903.422 1.54.422zm21.906-10.786v13.113h-3l-.266-2.221c-.407.775-1 1.392-1.779 1.85-.761.459-1.663.688-2.707.688-1.629 0-2.894-.511-3.797-1.534-.902-1.022-1.354-2.52-1.354-4.494v-7.402h3.398v7.085c0 1.128.23 1.992.69 2.59.46.6 1.178.9 2.151.9.956 0 1.735-.335 2.336-1.005.62-.67.929-1.604.929-2.802v-6.768h3.399zm8.532 13.113c-1.381 0-2.487-.335-3.319-1.005-.831-.67-1.247-1.86-1.247-3.569v-5.71h-2.257v-2.829h2.257l.398-3.516h3v3.516h3.557v2.829h-3.557v5.737c0 .634.132 1.075.398 1.321.283.23.761.344 1.434.344h1.645v2.882h-2.309zm6.156 5.815l3.053-6.688h-.796l-5.124-12.24h3.69l3.69 9.226 3.85-9.226h3.61l-8.362 18.928h-3.611zm13.398-5.815V14.222h3.027l.318 2.459a5.429 5.429 0 011.938-2.01c.832-.51 1.805-.766 2.92-.766v3.569h-.955c-.744 0-1.407.114-1.991.344a2.739 2.739 0 00-1.381 1.19c-.318.563-.478 1.348-.478 2.352v5.975h-3.398zm15.894.317c-1.327 0-2.504-.282-3.531-.846a6.139 6.139 0 01-2.416-2.38c-.584-1.022-.876-2.202-.876-3.542 0-1.357.283-2.564.85-3.622.584-1.057 1.38-1.877 2.389-2.458 1.027-.6 2.23-.899 3.611-.899 1.292 0 2.433.282 3.424.846a5.972 5.972 0 012.31 2.326c.566.97.849 2.054.849 3.252 0 .194-.009.397-.026.608 0 .212-.009.432-.027.661h-10.008c.071 1.022.425 1.824 1.062 2.406.655.581 1.442.872 2.362.872.691 0 1.266-.15 1.726-.45a2.927 2.927 0 001.062-1.215h3.451a6.254 6.254 0 01-1.248 2.273 5.995 5.995 0 01-2.123 1.586c-.832.388-1.779.582-2.841.582zm.027-10.998c-.832 0-1.567.238-2.204.714-.637.458-1.044 1.163-1.221 2.115h6.557c-.053-.864-.372-1.55-.956-2.062-.584-.511-1.309-.767-2.176-.767zm8.645 10.681V8.3H164v19.034h-3.398zM32.767 21.79c4.782-5.116 4.394-13.207 4.374-13.556a1.086 1.086 0 00-1.027-1.023c-.166-.01-2.514-.123-5.453.472-.58-2.965-1.596-5.095-1.644-5.195a1.09 1.09 0 00-1.341-.553c-.106.037-2.335.827-4.849 2.514C21.178 1.97 19.442.4 19.304.277a1.091 1.091 0 00-1.452 0c-.138.122-1.874 1.693-3.523 4.173-2.514-1.688-4.743-2.478-4.848-2.515a1.09 1.09 0 00-1.342.553c-.048.1-1.064 2.23-1.644 5.196-2.938-.596-5.287-.482-5.453-.473-.554.03-.996.47-1.027 1.023-.02.349-.407 8.44 4.374 13.555-2.436 1.343-4.031 3.098-4.11 3.185a1.081 1.081 0 000 1.447c.173.192 4.3 4.715 9.555 4.715 1.366 0 2.654-.306 3.818-.762 1.21 3.65 4.066 6.23 4.2 6.35a1.09 1.09 0 001.452 0c.135-.12 2.99-2.7 4.2-6.35 1.164.456 2.453.762 3.818.762 5.255 0 9.382-4.523 9.555-4.715.37-.412.37-1.035 0-1.447-.079-.087-1.674-1.842-4.11-3.185zm-1.852-1.21c-2.83 2.82-7.048 3.684-9.73 3.94 1.935-2.3 4.66-6.384 4.66-11.13 0-.53-.035-1.053-.098-1.566 3.304-2.032 7.36-2.397 9.223-2.45-.062 2.26-.586 7.752-4.054 11.206zM27.45 4.37c.328.854.79 2.226 1.099 3.85-1.084.336-2.195.78-3.267 1.366a17.565 17.565 0 00-1.34-3.268 23.029 23.029 0 013.508-1.949zm-8.87-1.757c1.358 1.428 4.205 4.832 4.922 8.91v.001c.107.609.167 1.232.167 1.867 0 4.868-3.529 9.13-5.09 10.777-1.56-1.647-5.09-5.909-5.09-10.777 0-4.87 3.532-9.134 5.091-10.778zM9.707 4.369a23.043 23.043 0 013.509 1.949c-.53 1.001-1 2.098-1.341 3.268A17.77 17.77 0 008.608 8.22a22.85 22.85 0 011.099-3.852zm1.702 7.456a12.798 12.798 0 00-.098 1.566c0 4.747 2.728 8.833 4.663 11.133-2.678-.253-6.892-1.114-9.734-3.944-3.458-3.443-3.987-8.945-4.052-11.207 1.862.05 5.909.412 9.22 2.452zm-8.765 13.87c.733-.66 1.964-1.641 3.482-2.358 3.168 2.35 7.081 3.117 9.682 3.356a14.095 14.095 0 01-1.984 1.231c-1.18.596-2.546 1.044-3.99 1.044-3.129 0-5.911-2.122-7.19-3.272zm15.932 8.674c-.873-.96-2.3-2.774-2.947-4.96a17.626 17.626 0 002.949-2.185c.654.6 1.672 1.438 2.948 2.185-.645 2.178-2.076 3.997-2.95 4.96zm8.746-5.401c-2.346 0-4.498-1.194-5.967-2.276 2.6-.24 6.51-1.007 9.674-3.355 1.513.715 2.748 1.699 3.484 2.361-1.276 1.152-4.048 3.27-7.19 3.27z" fill="#9798A8"/></svg>