<svg width="164" height="25" fill="none" xmlns="http://www.w3.org/2000/svg"><path d="M11.134 13.712a5.567 5.567 0 11-11.134 0 5.567 5.567 0 0111.134 0zm10.522 10.021V1.13L26.886 0v7.814a7.225 7.225 0 012.1-1.098 8.009 8.009 0 012.486-.387c2.002 0 3.638.645 4.908 1.937 1.27 1.292 1.905 2.938 1.905 4.94v10.527h-5.23v-9.816c0-.926-.291-1.669-.873-2.228-.56-.582-1.302-.872-2.228-.872-.667 0-1.259.118-1.776.355a3.49 3.49 0 00-1.291 1.001v11.56h-5.23zm18.964-8.525c0-1.227.237-2.378.71-3.455a9.197 9.197 0 011.97-2.841 9.26 9.26 0 012.939-1.873 9.422 9.422 0 013.649-.71c1.291 0 2.497.236 3.616.71 1.14.452 2.12 1.076 2.938 1.873a8.523 8.523 0 011.97 2.841 8.168 8.168 0 01.742 3.455c0 1.227-.247 2.39-.742 3.487a8.61 8.61 0 01-1.97 2.81c-.818.796-1.797 1.42-2.938 1.872-1.12.453-2.325.678-3.616.678a9.813 9.813 0 01-3.65-.678 9.26 9.26 0 01-2.938-1.872 9.31 9.31 0 01-1.97-2.81 8.712 8.712 0 01-.71-3.487zm9.268 4.327c1.162 0 2.141-.42 2.938-1.26.818-.839 1.227-1.861 1.227-3.067 0-1.227-.41-2.26-1.227-3.1-.797-.839-1.776-1.259-2.938-1.259-1.163 0-2.153.42-2.971 1.26-.797.839-1.195 1.872-1.195 3.1 0 1.205.398 2.227 1.195 3.067.818.84 1.808 1.259 2.97 1.259zm10.396 2.293l2.486-3.52c1.076.646 2.056 1.12 2.938 1.42a8.62 8.62 0 002.616.42c.86 0 1.539-.118 2.034-.355.517-.258.775-.592.775-1 0-.323-.14-.582-.42-.776-.28-.215-.72-.366-1.324-.452L66 17.05c-1.679-.259-2.97-.818-3.875-1.68-.904-.882-1.356-2.023-1.356-3.422 0-1.722.657-3.078 1.97-4.068 1.313-.99 3.11-1.486 5.392-1.486 1.227 0 2.454.183 3.681.55 1.249.344 2.4.85 3.455 1.517l-2.486 3.358c-.926-.538-1.808-.926-2.648-1.162a8.521 8.521 0 00-2.519-.388c-.667 0-1.205.118-1.614.355-.409.215-.613.506-.613.872 0 .344.15.624.452.84.301.193.818.344 1.55.451l3.39.517c1.679.237 2.97.797 3.875 1.68.925.86 1.388 1.958 1.388 3.293 0 .818-.194 1.582-.581 2.292a5.703 5.703 0 01-1.615 1.84c-.667.517-1.474.926-2.421 1.228-.948.28-1.97.42-3.068.42-1.614 0-3.121-.184-4.52-.55-1.378-.387-2.562-.947-3.552-1.678zm19.858-3.294v-7.523h-3.454V6.65h3.454V2.26l5.231-1.13v5.52h4.78v4.36h-4.78v6.49c0 .753.162 1.291.485 1.614.344.302.936.452 1.776.452a9.95 9.95 0 001.162-.064c.366-.065.764-.162 1.195-.29v4.229c-.474.15-1.077.27-1.808.355-.732.108-1.346.162-1.84.162-2.046 0-3.596-.452-4.65-1.357-1.034-.925-1.55-2.281-1.55-4.068zm27.713 2.938c-1.077.904-2.185 1.561-3.326 1.97-1.12.409-2.39.613-3.81.613a9.813 9.813 0 01-3.65-.678 9.174 9.174 0 01-2.97-1.872 9.309 9.309 0 01-1.97-2.81 8.71 8.71 0 01-.71-3.487 8.83 8.83 0 01.678-3.455 9.027 9.027 0 011.905-2.841 8.683 8.683 0 012.81-1.873 9.152 9.152 0 013.519-.678c1.249 0 2.4.237 3.455.71a8.208 8.208 0 012.712 1.938c.775.818 1.378 1.808 1.809 2.97.43 1.141.645 2.379.645 3.714v1.291H96.779a4.621 4.621 0 001.615 1.97c.732.495 1.593.742 2.583.742.71 0 1.356-.107 1.937-.322a4.446 4.446 0 001.486-.97l3.455 3.068zm-7.621-10.849c-.86 0-1.603.237-2.228.71-.624.474-1.065 1.141-1.323 2.002h7.135c-.279-.818-.742-1.474-1.388-1.97-.624-.494-1.356-.742-2.196-.742zm11.164 13.11V6.652h5.23v1.71a5.946 5.946 0 011.97-1.549c.753-.366 1.593-.549 2.519-.549a7.46 7.46 0 011.194.13c.302.042.56.14.775.29v4.553a5.67 5.67 0 00-1.162-.355 5.439 5.439 0 00-1.324-.162c-.818 0-1.582.194-2.293.581a4.741 4.741 0 00-1.679 1.582v10.85h-5.23zm12.925-5.651c.818 0 1.517.301 2.098.904.603.581.904 1.28.904 2.099 0 .818-.301 1.528-.904 2.131a2.859 2.859 0 01-2.098.872c-.818 0-1.529-.29-2.132-.872-.581-.603-.871-1.313-.871-2.131 0-.818.29-1.518.871-2.099.603-.603 1.314-.904 2.132-.904zm13.667 1.453c.71 0 1.367-.15 1.97-.452.602-.301 1.184-.764 1.743-1.388l3.1 3.228a9.027 9.027 0 01-3.164 2.325 9.773 9.773 0 01-3.907.807 9.477 9.477 0 01-3.584-.678 8.966 8.966 0 01-2.874-1.872 9.109 9.109 0 01-1.905-2.81c-.452-1.076-.678-2.238-.678-3.487 0-1.248.226-2.41.678-3.487.473-1.098 1.108-2.034 1.905-2.81a8.968 8.968 0 012.874-1.872 9.101 9.101 0 013.584-.71c1.399 0 2.734.28 4.004.84a9.263 9.263 0 013.228 2.324l-3.196 3.326c-.603-.668-1.216-1.163-1.841-1.486a4.429 4.429 0 00-2.066-.484c-1.12 0-2.067.42-2.842 1.26-.753.839-1.13 1.872-1.13 3.1 0 1.226.388 2.26 1.163 3.099.796.818 1.776 1.227 2.938 1.227zm7.476-4.327c0-1.227.237-2.378.71-3.455a9.196 9.196 0 011.97-2.841 9.258 9.258 0 012.938-1.873 9.422 9.422 0 013.649-.71c1.292 0 2.497.236 3.616.71 1.141.452 2.121 1.076 2.939 1.873a8.52 8.52 0 011.969 2.841 8.17 8.17 0 01.743 3.455c0 1.227-.248 2.39-.743 3.487a8.607 8.607 0 01-1.969 2.81c-.818.796-1.798 1.42-2.939 1.872-1.119.453-2.324.678-3.616.678a9.813 9.813 0 01-3.649-.678 9.257 9.257 0 01-2.938-1.872 9.308 9.308 0 01-1.97-2.81 8.72 8.72 0 01-.71-3.487zm9.267 4.327c1.162 0 2.142-.42 2.938-1.26.818-.839 1.227-1.861 1.227-3.067 0-1.227-.409-2.26-1.227-3.1-.796-.839-1.776-1.259-2.938-1.259-1.162 0-2.153.42-2.971 1.26-.796.839-1.194 1.872-1.194 3.1 0 1.205.398 2.227 1.194 3.067.818.84 1.809 1.259 2.971 1.259z" fill="#9798A8"/></svg>