<svg width="164" height="41" fill="none" xmlns="http://www.w3.org/2000/svg"><path d="M18.867 40.382V21.595H0v-.058a18.775 18.775 0 0018.867 18.845zm0-21.537H.057V0H0c10.443 0 18.867 8.333 18.867 18.845zm19.045 21.537h-5.134V11.71h10.107c3.72 0 6.563.753 8.53 2.261 1.968 1.508 2.952 3.688 2.952 6.542 0 2.88-1.065 5.142-3.194 6.784-2.13 1.615-5.23 2.423-9.299 2.423h-3.962v10.66zm4.77-24.39h-4.77V25.4h4.245c2.426 0 4.191-.39 5.296-1.17 1.105-.782 1.658-1.993 1.658-3.635 0-1.642-.526-2.813-1.577-3.514-1.024-.726-2.641-1.09-4.851-1.09zm33.056 4.078v20.312h-5.013l.162-3.554c-.728 1.239-1.685 2.208-2.87 2.908-1.16.673-2.494 1.01-4.003 1.01-1.779 0-3.288-.404-4.528-1.212-1.24-.835-2.183-1.979-2.83-3.433-.647-1.453-.97-3.122-.97-5.007 0-2.261.444-4.24 1.334-5.936.89-1.723 2.102-3.07 3.638-4.038 1.564-.97 3.316-1.454 5.256-1.454 1.294 0 2.44.283 3.437.848.997.538 1.765 1.265 2.304 2.18l.485-2.624h3.598zm-9.46 3.957c-1.671 0-3.005.633-4.002 1.898-.998 1.265-1.496 2.921-1.496 4.967 0 1.75.377 3.11 1.132 4.079.754.969 1.792 1.454 3.113 1.454a4.87 4.87 0 002.91-.93c.89-.618 1.59-1.48 2.103-2.584.512-1.104.768-2.369.768-3.796 0-1.588-.404-2.826-1.213-3.715-.808-.915-1.913-1.373-3.315-1.373zm23.35 16.718c-2.453 0-4.366-.673-5.74-2.019-1.348-1.346-2.009-3.11-1.982-5.29l.162-9.328H78.59v-4.119h3.558l.04-4.2h4.933l-.081 4.2h6.67v4.119H87l-.122 8.803c-.027 1.104.242 1.979.808 2.625.593.62 1.47.929 2.628.929.62 0 1.2-.08 1.739-.242.539-.162 1.105-.458 1.698-.889l1.455 3.796c-.62.538-1.415.942-2.385 1.212-.97.269-2.035.403-3.194.403zm20.832-15.991c-.539-.188-1.227-.283-2.062-.283-1.456 0-2.628.539-3.517 1.616-.89 1.05-1.55 2.746-1.981 5.088-.405 2.315-.607 5.384-.607 9.207h-4.892V27.217l-.04-7.228h4.932l-.242 5.694c.7-2.18 1.671-3.729 2.91-4.644 1.267-.915 2.615-1.373 4.043-1.373.432 0 .836.027 1.213.08.378.055.728.135 1.051.243l-.808 4.765zm8.336-4.765v20.393h-4.932V19.989h4.932zm-2.466-3.23c-.97 0-1.738-.297-2.304-.889-.566-.592-.849-1.306-.849-2.14 0-.835.283-1.548.849-2.14.566-.593 1.334-.889 2.304-.889.97 0 1.739.296 2.305.889.566.592.849 1.305.849 2.14 0 .834-.283 1.548-.849 2.14-.566.592-1.335.889-2.305.889zm16.816 23.986c-3.099 0-5.552-.888-7.358-2.665-1.805-1.804-2.708-4.307-2.708-7.51 0-2.155.444-4.053 1.334-5.695.889-1.642 2.129-2.92 3.719-3.836 1.59-.915 3.423-1.373 5.499-1.373 1.725 0 3.234.337 4.528 1.01 1.293.673 2.344 1.723 3.153 3.15l-3.517 2.665c-.512-.862-1.105-1.481-1.779-1.858-.647-.377-1.442-.565-2.385-.565-1.591 0-2.898.592-3.922 1.776-.997 1.185-1.496 2.746-1.496 4.685 0 1.884.445 3.338 1.334 4.361.917.996 2.224 1.494 3.922 1.494.889 0 1.711-.202 2.466-.606.782-.403 1.428-1.036 1.941-1.898l3.436 2.746c-.916 1.481-2.075 2.544-3.477 3.19-1.401.62-2.965.93-4.69.93zm10.842-.363V10.499h4.932v17.85l8.086-8.32h5.943l-9.501 9.813c.62.377 1.159.902 1.617 1.575l2.103 3.15c.889 1.346 2.075 2.019 3.557 2.019.755 0 1.469-.188 2.143-.565L164 39.655a6.608 6.608 0 01-2.021.848 9.358 9.358 0 01-2.184.242c-1.509-.027-2.789-.323-3.84-.888-1.024-.565-1.968-1.508-2.83-2.827l-2.143-3.15c-.728-1.13-1.415-1.898-2.062-2.301v8.803h-4.932z" fill="#9798A8"/></svg>