<svg width="164" height="29" fill="none" xmlns="http://www.w3.org/2000/svg"><path d="M149.181 19.403c-.419.479-.938.718-1.557.718a2.02 2.02 0 01-1.586-.718c-.399-.499-.599-1.227-.599-2.185s.209-1.677.629-2.156c.419-.499.938-.748 1.556-.748.619 0 1.138.25 1.557.748.419.48.629 1.198.629 2.156 0 .957-.21 1.686-.629 2.185z" fill="#9798A8"/><path fill-rule="evenodd" clip-rule="evenodd" d="M105.417 0h48.799L164 14.434l-9.784 14.433h-48.799l9.671-14.434L105.417 0zm24.756 10.751c.479.22.848.54 1.108.958h7.005c-.32-2.295-1.358-4.11-3.114-5.448-1.736-1.337-3.991-2.006-6.765-2.006-2.176 0-4.072.46-5.688 1.377a9.276 9.276 0 00-3.742 3.802c-.858 1.637-1.287 3.503-1.287 5.598 0 2.096.429 3.962 1.287 5.598a9.47 9.47 0 003.742 3.832c1.636.898 3.552 1.347 5.748 1.347 2.474 0 4.52-.559 6.136-1.676 1.617-1.138 2.884-2.495 3.802-4.072v-6.645h-10.807v4.7h5.299c-.938 1.237-2.175 1.856-3.712 1.856-1.617 0-2.814-.41-3.592-1.228-.779-.818-1.168-2.055-1.168-3.712 0-1.437.349-2.564 1.048-3.383.698-.838 1.686-1.257 2.964-1.257.678 0 1.257.12 1.736.36zm12.871 14.07c1.357.699 2.884 1.048 4.58 1.048 1.697 0 3.223-.35 4.58-1.048a7.654 7.654 0 003.174-2.993c.778-1.317 1.167-2.854 1.167-4.61 0-1.757-.389-3.283-1.167-4.58a7.6 7.6 0 00-3.174-3.024c-1.357-.699-2.883-1.048-4.58-1.048-1.696 0-3.223.35-4.58 1.048a7.791 7.791 0 00-3.203 3.023c-.759 1.298-1.138 2.824-1.138 4.58 0 1.757.379 3.294 1.138 4.61a7.85 7.85 0 003.203 2.994z" fill="#9798A8"/><path d="M25.476 3.396V24.59H18.86V14.023L15.597 24.59H9.909L6.646 14.023V24.59H0V3.396h8.143l4.67 12.723 4.55-12.723h8.113zM35.3 24.8c-1.697 0-3.223-.35-4.58-1.048a7.851 7.851 0 01-3.203-2.993c-.759-1.318-1.138-2.854-1.138-4.61 0-1.757.38-3.284 1.137-4.58a7.792 7.792 0 013.204-3.024c1.357-.699 2.883-1.048 4.58-1.048 1.696 0 3.223.35 4.58 1.048a7.6 7.6 0 013.173 3.023c.779 1.297 1.168 2.824 1.168 4.58 0 1.757-.39 3.293-1.168 4.61a7.654 7.654 0 01-3.173 2.994c-1.357.699-2.884 1.048-4.58 1.048zm0-5.748c.619 0 1.137-.24 1.556-.718.42-.5.63-1.228.63-2.186s-.21-1.676-.63-2.155c-.419-.499-.938-.748-1.556-.748-.619 0-1.138.25-1.557.748-.419.479-.629 1.197-.629 2.155 0 .958.2 1.687.6 2.186.418.479.947.718 1.586.718zm18.373-.778l2.694-10.568h7.065L57.804 24.59h-8.292L43.884 7.706h7.065l2.724 10.568zm26.67-2.275c0 .459-.03.898-.09 1.317H69.566c.1 1.457.708 2.185 1.826 2.185.719 0 1.237-.329 1.557-.988h7.035a7.34 7.34 0 01-1.527 3.233c-.758.939-1.726 1.687-2.904 2.246-1.157.538-2.435.808-3.832.808-1.676 0-3.173-.35-4.49-1.048a7.598 7.598 0 01-3.053-2.993c-.719-1.318-1.078-2.854-1.078-4.61 0-1.757.359-3.284 1.077-4.58.739-1.318 1.757-2.326 3.054-3.024 1.317-.699 2.814-1.048 4.49-1.048 1.677 0 3.164.35 4.46 1.048a7.218 7.218 0 013.054 2.933c.739 1.278 1.108 2.784 1.108 4.52zm-6.736-1.587c0-.559-.18-.978-.538-1.257-.36-.3-.809-.45-1.348-.45-1.177 0-1.866.57-2.065 1.707h3.951zm14.286-3.592a7.906 7.906 0 012.485-2.335c.978-.599 1.996-.898 3.053-.898v7.095h-1.886c-1.257 0-2.185.22-2.784.658-.578.44-.868 1.218-.868 2.335v6.915h-6.646V7.706h6.646v3.114zm13.645 13.98c-1.597 0-3.014-.26-4.25-.778-1.218-.52-2.186-1.238-2.905-2.156a5.752 5.752 0 01-1.227-3.113h6.376c.08.499.29.868.629 1.107.359.24.808.36 1.347.36.339 0 .609-.07.808-.21.2-.16.3-.35.3-.569 0-.379-.21-.648-.629-.808-.419-.16-1.128-.34-2.125-.539-1.218-.24-2.226-.499-3.024-.778-.778-.28-1.467-.758-2.066-1.437-.578-.679-.868-1.617-.868-2.814 0-1.038.27-1.976.809-2.814.558-.858 1.377-1.527 2.454-2.006 1.078-.499 2.385-.748 3.922-.748 2.275 0 4.051.559 5.329 1.676 1.297 1.118 2.075 2.575 2.335 4.371h-5.898c-.1-.46-.309-.808-.628-1.048-.32-.26-.749-.389-1.288-.389-.339 0-.598.07-.778.21-.18.12-.27.309-.27.568 0 .34.21.6.629.779.419.16 1.088.329 2.006.509 1.217.24 2.245.508 3.083.808.839.3 1.567.818 2.186 1.557.618.718.928 1.716.928 2.993 0 .998-.29 1.896-.868 2.694-.579.799-1.417 1.427-2.515 1.886-1.078.46-2.345.689-3.802.689z" fill="#9798A8"/></svg>