<svg width="221" height="195" fill="none" xmlns="http://www.w3.org/2000/svg"><path fill-rule="evenodd" clip-rule="evenodd" d="M173.276 35.18c4.393-.593 9.673.132 12.992 2.857.283.048.531.145.658.282.47.027.895.138 1.106.344 1.973 1.803 1.727 5.701 1.559 8.376a76.93 76.93 0 00-.045.748c-.229 4.362-2.008 8.461-4.92 11.73-6.171 6.892-14.051 3.08-18.972-3.05-5.315-6.724-4.67-17.49 4.357-20.548.372-.125.76-.238 1.162-.339.225-.178.466-.332.726-.457.335-.172.946-.121 1.377.056zm13.227 10.179c-.075 2.774-.621 5.683-1.118 7.047-.817 2.19-2.125 4.455-3.649 6.3-.449.674-1.075 1.173-1.702 1.672h-.039c.519-1.226.959-2.478 1.399-3.73h.001v-.003c.532-1.513 1.065-3.027 1.738-4.494a130.874 130.874 0 013.37-6.792zm-.357-3.41a.594.594 0 00-.146.148c-1.825 3.15-3.438 6.369-4.945 9.62-.674 1.47-1.206 2.984-1.739 4.499-.483 1.375-.966 2.75-1.556 4.09l-1.421-.045c.254-.645.635-1.317 1.001-1.963.334-.588.655-1.155.858-1.66.392-.862.748-1.706 1.105-2.55l.005-.009.001-.003c.359-.848.718-1.696 1.112-2.562 1.569-3.464 3.316-6.799 5.116-10.158.024.049.047.098.069.148.082.193.28.34.54.444zm-13.387 18.197l1.319.042c.407-1.507 1.311-3.194 2.15-4.758.526-.98 1.025-1.913 1.361-2.723 1.983-4.52 4.325-8.927 6.669-13.241a7.85 7.85 0 00-1.643-1.349c-4.302 5.71-8.541 13.16-9.78 20.174a.321.321 0 01-.025.238l-.102.317c-.14.274-.626.413-1.1.41.392.392.789.728 1.151.89zm8.124-22.853c-4.448 5.853-8.922 13.608-10.247 20.911a17.552 17.552 0 00-.6-.65c.033-.041.068-.087.105-.138l.037-.05.06-.083.002-.002.094-.13c.205-.308-.124-.543-.581-.654 1.188-6.953 4.669-13.624 8.316-19.511.067-.1.077-.192.045-.275.959.08 1.894.272 2.769.582zm-13.839 16.102c.257.492.537.971.837 1.435 1.393-6.33 4.529-12.398 7.842-17.84a.359.359 0 01.061-.154.418.418 0 00.054-.032l.052-.085c-1.368.12-2.733.445-3.999.956-.875 1.486-1.436 3.632-1.868 5.287v.001c-.16.611-.302 1.156-.436 1.575-.157.491-.371 1.05-.599 1.65l-.002.005-.002.004-.001.003c-.805 2.11-1.799 4.715-1.23 6.621.095.332-.261.519-.709.574zm1.807-13.962c-.231.663-.426 1.329-.607 1.947-.115.39-.224.763-.333 1.102a46.449 46.449 0 01-.743 2.073c-.576 1.535-1.226 3.267-1.549 4.92-.491-2.36-.33-4.817.815-7.116.562-1.126 1.398-2.109 2.417-2.926zm-5.177 36.71c-.203-1.71-1.281-3.218-2.816-4.475-.044-.19-.261-.333-.541-.42-3.516-2.58-8.93-3.972-12.098-3.68-3.965.362-8.473 2.418-10.966 5.471-3.429 4.153-1.043 9.821 1.187 14.155 3.664 6.778 11.683 13.436 19.247 8.391 4.148-2.755 5.821-6.888 5.94-11.636.011-.606.047-1.236.084-1.877.105-1.808.214-3.696-.229-5.357l.057-.148.011-.038a.491.491 0 00.124-.386zm-3.161 2.605c-.187-1.27-.501-2.416-.97-3.273a161.759 161.759 0 01-1.921 4.597c-.466 1.085-.932 2.17-1.38 3.26l-.067.152c-.021.05-.046.105-.074.166l-.058.13-.107.237c-.99 2.197-3.723 8.263-3.376 10.144 1.407.011 2.248-.028 2.937-.325-.344-.13-.568-.343-.438-.611 1.785-3.447 3.047-7.26 4.301-11.047.38-1.15.76-2.296 1.153-3.43zm.027 6.55c-.607 1.783-1.243 3.55-1.962 5.262.474-.654.951-1.352 1.239-1.996.307-.772.56-1.931.723-3.266zm-5.229-4.743c1.068-2.657 2.139-5.32 3.089-8.047-.678-.582-1.496-1.07-2.394-1.47.115.096.159.213.093.341-3.479 6.654-6.155 14.868-7.393 22.332.104.09.161.196.146.315.467.046 1.017.07 1.692.093 1.199-4.692 2.98-9.12 4.767-13.564zm.147-9.746c-.566-.119-1.312-.047-1.504.349-3.506 6.48-6.114 14.707-7.381 22.068-.425-.33-.86-.793-1.426-1.444.276-.241.186-.45-.071-.597.22-2.081.964-4.212 1.703-6.328.46-1.32.919-2.633 1.248-3.927.731-2.83 1.64-5.602 2.548-8.375.3-.914.6-1.827.893-2.743 1.356.177 2.735.506 3.99.997zm-13.894 16.103c.484.94 1.066 1.803 1.711 2.637.342-1.678.914-3.313 1.482-4.936.452-1.292.901-2.577 1.23-3.87.731-2.83 1.64-5.603 2.549-8.376l.002-.007c.295-.9.59-1.8.879-2.702l-.111-.002h-.169c-.029.073-.11.149-.258.225-1.764.908-2.601 3.145-3.35 5.149-.259.693-.508 1.358-.781 1.93-.162.327-.324.65-.485.971-1.349 2.694-2.615 5.223-3.082 8.211.124.258.252.515.383.77zm4.518-16.926c-1.247 1.188-1.903 2.846-2.546 4.471-.14.352-.278.702-.422 1.046a88.205 88.205 0 01-1.211 2.583l-.001.002c-.561 1.165-1.119 2.324-1.604 3.507a.483.483 0 00-.134-.152c-.178-.173 1.209-4.51 1.346-4.937v-.001c.473-1.778.945-3.556 1.796-5.28a15.866 15.866 0 011.819-.914c.283-.126.604-.234.957-.325zm-5.91 11.92c-.129.086-.329.152-.554.19.069.235.142.468.218.7.106-.298.219-.595.336-.89zm-.181-7.695a6.701 6.701 0 00-1.139 4.207c.187-.655.358-1.31.53-1.966.196-.751.392-1.5.609-2.241z" fill="#0C0D1F"/><path fill-rule="evenodd" clip-rule="evenodd" d="M160.319 26.935c10.824-6.44 22.097-11.996 33.616-17.321-.205-.426.522-.636 1.186-.548l1.677-.77.566-.259c.848-.404 1.694-.814 2.539-1.223l.003-.001h.002l.002-.002c3.818-1.848 7.628-3.692 11.607-5.09.367-.127.761-.277 1.176-.434 1.963-.744 4.374-1.659 6.324-1.13 1.833.471 2.053 1.242 1.968 2.966-.072 1.372-.657 2.903-1.223 4.386-.334.874-.661 1.731-.873 2.53-.474 1.482-.855 2.994-1.235 4.506-.19.756-.38 1.512-.582 2.265-3.835 14.27-9.035 28.045-15.066 41.497.42.087.773.263.916.54 7.198 11.414 13.612 24.911 13.284 38.697-.096 6.356-2.701 13.244-4.948 19.188l-.159.42c-2.384 6.356-5.432 12.966-9.123 18.669-.447.68-.971 1.618-1.562 2.678l-.001.001c-3.012 5.398-7.774 13.932-13.107 7.441-3.388-4.168-6.245-9.43-8.888-14.299l-.006-.01-.51-.939-.557-1.021c-2.462-4.53-4.575-9.143-6.207-13.942l-.406.768v.001c-2.307 4.364-4.613 8.727-7.196 12.946-.206.371-.784.525-1.391.522-1.516 2.623-2.648 4.133-5.805 3.007-4.283-1.533-7.975-5.59-11.444-9.403l-.001-.001-.001-.001-.001-.001-.006-.008c-.72-.791-1.43-1.571-2.134-2.316-.851 2.723-2.092 5.289-3.329 7.847a131.875 131.875 0 00-1.57 3.324c-.242.515-.501 1.188-.788 1.938l-.001.002v.001c-1.017 2.647-2.393 6.232-4.655 7.052-1.643.612-3.03-.438-4.312-1.407a32.47 32.47 0 00-.487-.365c-2.126-1.558-4.175-3.178-6.223-4.798s-4.096-3.24-6.223-4.797a1246.65 1246.65 0 01-4.837-3.567c-3.772-2.79-7.558-5.591-11.43-8.304-.352-.239-.85-.52-1.412-.837-2.039-1.148-4.932-2.779-4.872-4.681.125-2.656 5.676-5.874 8.333-7.414l.003-.002.002-.001c.332-.193.618-.359.843-.494 4.423-2.713 8.572-5.626 12.511-8.941-4.266-3.913-8.528-7.697-13.587-10.665-.936-.58-.184-1.041.758-1.204.04-3.154 2.657-6.158 4.95-8.788.722-.829 1.412-1.62 1.979-2.368a131.81 131.81 0 012.886-3.605 1.873 1.873 0 01-.541-.078c-1.84-.53-3.821-.722-5.8-.914-1.811-.176-3.621-.352-5.322-.786-2.255-.606-4.511-1.213-6.839-1.96-1.085-.348-2.204-.638-3.326-.928-3.255-.843-6.537-1.694-9.099-3.99a.612.612 0 01-.148-.632c2.6-6.863 9.078-12.395 14.767-17.253h.002l.006-.007.004-.002c.864-.738 1.71-1.46 2.52-2.17l.423-.363c6.309-5.417 12.958-11.128 20.369-15.031 6.285-3.237 13.396-5.042 20.391-4.666 6.539.336 12.341 2.977 18.142 5.617.634.289 1.267.577 1.902.862.495-.1 1.096-.061 1.576.066zm-55.533 57.52c-.06-2.837 2.319-5.623 4.382-8.038.672-.786 1.31-1.533 1.82-2.23 2.836-3.76 5.85-7.346 9.041-10.758 6.485-7.142 13.359-14.042 20.804-20.176 14.476-11.7 30.712-20.15 47.232-28.392 2.258-1.137 4.516-2.273 6.782-3.395.969 1.89 2.026 3.7 3.241 5.407.218.481.496 1.01.84 1.588.736 1.195 2.069 2.909 3.563 3.357 1.064.872 2.223 1.628 3.378 2.38 1.681 1.097 3.354 2.187 4.709 3.623-5.362 16.716-12.61 32.808-20.588 48.475-4.496 8.947-9.245 17.229-14.52 25.693-1.589 2.536-3.069 5.127-4.5 7.742-.806.032-1.536.356-1.333 1.01l.077.292.072.27.043.156.03.112.039.14c-.761 1.416-1.512 2.837-2.263 4.258l-.001.002c-2.259 4.274-4.517 8.547-7.036 12.685-.617.005-1.21.178-1.422.559-1.658 2.905-2.578 2.051-4.75.032l-.218-.202-.289-.267-.337-.307c-1.12-1.06-2.187-2.19-3.255-3.32-1.067-1.13-2.134-2.261-3.254-3.32a156.216 156.216 0 00-3.662-3.408c-.058-.199-.246-.349-.503-.453-2.365-2.12-4.786-4.193-7.193-6.253l-.004-.003-.018-.016a680.564 680.564 0 01-3.993-3.436c-2.4-2.165-4.764-4.422-7.133-6.684-6.348-6.06-12.742-12.165-20.017-16.69.149-.113.238-.257.236-.433zm102.25-61.058l.132.085-.039-.074-.032-.004a3.928 3.928 0 01-.061-.007zm9.75-20.9a6.82 6.82 0 00-.335-.124c.06.046.114.095.165.147.056-.009.113-.017.17-.024zm-18.934 7.496c-.431.209-.861.419-1.29.63.181.354.365.706.551 1.056.014-.573.248-1.137.78-1.668a1.083 1.083 0 01-.041-.018zm1.506 5.502c.144.218.289.435.436.65a15.09 15.09 0 01-.173-.552 1.735 1.735 0 01-.263-.098zm14.817-9.406l.011-.016c.042-.101.082-.203.12-.306.135-.34.236-.632.308-.878-.059.025-.119.05-.179.077-.234.1-.476.204-.723.32-.151.322-.312.637-.482.947.131-.062.536-.138.945-.144zm-6.25.547a19 19 0 01-1.089.237c-.107.03-.321.035-.561.011l-.414.294-.079.057.095.031c.321-.019.728-.001 1.019.088.338-.249.68-.49 1.029-.718zm-6.218 10.31l-.007.004.029.088a.825.825 0 00.024-.065l-.046-.027zm.287.161l-.236.017c.233.685.438 1.21.544 1.369l.045.077.142.239c.048.081.1.168.156.258a5.47 5.47 0 00.109-.896l.002-.014v-.01a.347.347 0 000-.046l-.006-.012a2.315 2.315 0 01-.457-.3c-.106-.033-.144-.279-.11-.385l.092-.125-.02-.034-.261-.138zm7.889-.483c.072.168.135.348.187.538.152-.44.271-.888.357-1.342l-.075.118c-.075.103-.205.176-.365.223-.037.152-.072.307-.104.463zM140.15 118.677c-6.533-5.831-13.1-11.556-19.668-17.28l-.001-.002a216.978 216.978 0 01-4.266-3.841 87.158 87.158 0 01-8.702 6.453c-.784.494-1.633.975-2.501 1.467-2.529 1.434-5.224 2.963-6.976 5.182-.944.398-1.287 1.105-1.24 2.053-.517.885-.229 1.445.757 1.644.55.723 1.759 1.501 2.807 2.175.52.334 1 .642 1.34.906a465.274 465.274 0 004.962 3.634 490.69 490.69 0 014.962 3.635c3.686 2.699 7.477 5.433 11.269 8.167.488.313 1.547 1.232 2.777 2.299 1.91 1.658 4.235 3.674 5.48 4.344-.076-.853 1.621-3.242 1.621-3.242.586-1.115 1.096-2.305 1.6-3.481l.001-.002v-.001l.002-.005c.263-.612.524-1.22.793-1.813.277-.562.558-1.12.838-1.678 1.662-3.304 3.303-6.568 4.086-10.259a.5.5 0 01.059-.355zm72.476-26.717c-.995-11.034-5.951-21.77-11.729-31.202a435.977 435.977 0 01-7.258 15.073c-4.704 9.231-9.589 17.937-15.071 26.685-1.925 3.072-3.689 6.224-5.4 9.402 2.949 10.135 8.083 19.225 13.821 28.085.16.259.338.585.537.948 1.139 2.083 2.927 5.35 5.421 3.764.662-.399 1.533-2.23 2.24-3.717.373-.785.7-1.474.927-1.804 3.001-4.641 5.617-9.171 7.912-14.155l.107-.236c4.693-10.321 9.609-21.132 8.493-32.843zm-54.982-63.41a205.579 205.579 0 00-12.704 8.433c-9.405 6.789-17.778 14.726-25.757 23.257-2.29 2.477-4.541 4.967-6.72 7.533l-.006-.002c-2.433-.78-4.95-1.087-7.473-1.394-2.194-.268-4.391-.535-6.54-1.116-1.21-.346-2.504-.662-3.817-.982h-.002c-2.397-.584-4.859-1.183-7.002-2.021-3.813-1.574-4.219-3.221-2.077-6.27 1.587-2.409 3.742-4.403 5.862-6.29 3.37-3.24 6.74-6.478 10.252-9.437l.528-.444.85-.718.008-.008c6.625-5.597 13.684-11.561 21.788-14.744 11.844-4.69 21.943-.672 32.81 4.204zm-46.175 108.082c-1.639-2.666-4.67-7.594-7.881-7.861-7.401-5.253-20.743 2.868-25.684 8.346-.52.534.855.975 1.066 1.043 1.024.243 1.581.214 2.348.173.289-.015.607-.032.991-.036-.457-.03 5.972-.069 6.294.384.91 1.394-2.515 6.14-4.813 9.324-.866 1.2-1.571 2.178-1.825 2.672-1.648 3.206-2.186 6.399-2.77 9.864v.001c-.073.434-.147.872-.224 1.315-.078.505-.25 1.24-.449 2.095-.635 2.719-1.55 6.643-.623 8.184 1.711 2.894 6.037-.083 8.321-1.656.444-.305.81-.557 1.066-.703.787-.461 1.589-.922 2.398-1.388 3.031-1.742 6.16-3.542 8.937-5.6 2.461-1.747 4.345-3.89 6.264-6.124.459 1.241.4 2.677.343 4.081-.078 1.913-.154 3.765 1.087 4.978.533.521 1.904.611 2.603.251 3.073-1.583 4.808-6.279 5.473-9.451 1.33-6.344.641-14.035-2.799-19.691l-.123-.201zm-16.564.218c.936-2.117 3.161-5.671 5.779-7.269-4.809-3.235-15.031 3.424-19.115 7.283.895.033 1.826-.013 2.764-.059 2.56-.126 5.177-.254 7.283 1.208.042.041.096.086.153.133.183.153.398.333.346.494-.338 2.999-2.411 5.808-4.459 8.582-1.414 1.917-2.817 3.817-3.626 5.751-1.358 3.255-1.876 7.16-2.345 10.687v.004l-.15 1.116c-.032.226-.096.558-.173.96-.294 1.535-.782 4.085-.49 5.582 2.483-1.07 4.912-2.847 7.24-4.551 1.294-.947 2.556-1.871 3.78-2.638 4.673-2.937 7.695-5.82 11.441-9.871.728-.817 2.311-.66 3.056-.071 1.494 1.135 1.696 2.47 1.966 4.249l.023.155.033.214c.046.393.04 1.013.033 1.718-.008.83-.018 1.778.056 2.611 3.039-3.851 3.095-11.492 2.871-15.404-.171-3.042-.953-5.834-2.193-8.399-2.506 7.448-14.999 16.596-19.134 11.248-.177-.174-.25-.313-.148-.631 1.21-2.721 3.557-4.722 5.872-6.695 1.98-1.688 3.936-3.355 5.138-5.436-1.623.25-3.224.333-4.935.072-.457-.03-1.375-.442-1.066-1.043zm8.07-5.837a35.533 35.533 0 012.662 2.87c-.181.181-.208.416.026.698 4.312 5.118-10.756 17.212-12.292 15.085-.422-.556 2.383-3.288 5.313-6.143 2.766-2.695 5.644-5.498 6.023-6.681.372-1.164-1.735-1.14-2.366-.992l-.343.057h-.002l-.003.001c-.737.124-2.357.397-3.654.535 1.018-2.016 2.694-4.367 4.636-5.43z" fill="#0C0D1F"/><path d="M74.157 114.554c-10.361 2.599-18.652 11.128-26.114 18.804a349.913 349.913 0 01-3.587 3.655 665.8 665.8 0 00-28.97 30.747 191.9 191.9 0 01-.386.453c-3.774 4.417-20.375 23.845-13.414 26.639.635.203 2.006.293 2.455-.38.103-.142.172-.266.24-.39.07-.124.139-.247.242-.389.348-.653-.622-1.067-1.58-1.085.227-4.494 14.115-22.382 15.927-24.431 8.838-10.122 18.138-19.864 27.581-29.325a308.138 308.138 0 003.8-3.922l.002-.001c7.248-7.567 15.622-16.309 25.51-18.778 1.96-.655-.55-1.927-1.706-1.597zm-25.749 46.672c3.454-3.119 6.895-6.227 10.207-9.4.8-.677 3.864-.045 2.929 1.056-3.06 2.895-6.22 5.745-9.393 8.606-9.674 8.723-19.467 17.554-26.906 28.116a.554.554 0 01-.044.299c-.445 1.025-.936 1.101-2.023 1.219-.386.11-2.603-.251-1.98-1.102 7.366-10.869 17.338-19.877 27.21-28.794z" fill="#0C0D1F"/></svg>