<svg width="118" height="116" fill="none" xmlns="http://www.w3.org/2000/svg"><g clip-path="url(#clip0)" fill="#fff"><path d="M20.504 37.839c4.805-5.04 10.467-9.024 14.971-14.484L50.773 4.812c.595-.721-2.57-2.64-3.336-1.714L33.33 20.2c-4.759 5.77-10.548 10.17-15.82 15.514-.98.924 2.4 2.847 2.995 2.126zM58.68 73.835c2.84-3.89 12.045-5.472 16.538-7.132 4.299-1.648 8.512-3.192 12.701-4.93 3.267-1.288 7.055-3.876 10.589-4.596-.85-.528-1.7-1.056-2.66-1.675.049.387-.036.49-.097.786-.352 1.094 2.648 2.357 2.915 1.366.06-.297.145-.4.206-.696.352-1.094-1.883-1.726-2.66-1.675-3.922.746-7.71 3.334-11.34 4.84-5.222 2.099-10.468 4.004-15.799 6.012-4.213 1.545-10.77 2.368-13.526 6.153-.377.902 2.368 2.474 3.133 1.547zM53.56 45.2c-1.87 1.745-3.742 3.49-5.742 5.13-1.746 1.33-3.62 2.555-5.064 4.306-.595.721 2.7 2.746 3.336 1.713 1.401-1.96 3.701-3.178 5.532-4.612 1.616-1.436 3.318-2.975 4.935-4.412.978-.924-2.188-2.843-2.996-2.125zm8.589 52.315c4.05-.294 8.149-.375 12.38-.347 3.711.118 7.714-.389 11.35.361l-2.398-1.979c-.17.206-.122.419-.292.625-.413 1.044 3.029 2.845 3.442 1.8.17-.205.122-.418.291-.624.462-.831-1.829-1.855-2.398-1.98-4.122-.976-8.124-.469-12.138-.49-4.365-.14-8.767.038-13.036.325-1.395.062 1.84 2.384 2.799 2.31z"/></g><defs><clipPath id="clip0"><path fill="#fff" transform="rotate(39.522 22.245 64.926)" d="M0 0h92.816v72.917H0z"/></clipPath></defs></svg>