<svg width="192" height="131" fill="none" xmlns="http://www.w3.org/2000/svg"><g clip-path="url(#clip0)" fill="#fff"><path d="M3.05 97.5c.1.5.3 1.1.4 1.6-.6 0-1.3.1-1.9.1 2.3 1.4 3.9 6.8 5.3 9.2 1.7 2.9 3.4 5.8 5.2 8.6 2.2 3.5 6.1 12.5 10.8 13.2 5.3.7 8.9-7.4 11.5-10.8 2.4-3.2 4.7-6.5 7.1-9.7 1.3-1.8 2.6-3.5 3.9-5.3.4-.6.9-1.2 1.3-1.8 2-1.6 1.7-2.3-.7-2.1-.5-1-1.1-2.1-1.6-3.1v.9c.7-1 1.3-2 2-3 .6.2 1.2.3 1.8.4-1.7-1.8-5.1-.8-5.2 1.8-.1 2.1.5 3.1 2.2 4.3 1 .7 2.5.8 3.6.2.3-.1.5-.3.8-.4 1-.6 2-1.8 2-3-.2-4.6-4.7-6.9-8.2-3.5-3 2.9-5.2 7.3-7.7 10.7-2.8 3.9-5.5 7.7-8.3 11.6-1.2 1.7-2.3 3.9-3.8 5.3-1 .9-.9 1.2.4.8-.8-1-1.7-2.1-2.5-3.1-2.5-3.2-4.9-6.4-7.3-9.6-2.6-3.6-5.2-7.4-7.6-11.1-1.1-1.7-1.8-3.2-4-3.3-.7 0-1.4.4-1.6 1.1-.3.9-.1 1.4.4 2.2.4.5 1.1.5 1.6.3.1 0 .2-.1.3-.1.9-.5.8-2.2-.2-2.4z"/><path d="M25.05 127.1c.4-12.7 3.8-24.3 10.1-35.3 1.7-2.9-2.7-5.9-4.4-2.9-6.7 11.5-9.8 24.8-9.2 38.1.1 2.2 3.5 2.4 3.5.1zm16.5-50.2c3.1-4.7 6.5-9.2 10.2-13.4 3.1-3.5 7.1-6.5 9.5-10.4 1.1-1.8-.8-4.3-2.8-3.2-4.1 2.4-7.2 6.9-10.1 10.6-3.5 4.6-6.6 9.5-9.4 14.6-1 1.8 1.4 3.5 2.6 1.8zM69.75 42c8.4-9 17.7-16.1 28.4-22.3 2.8-1.6.6-6-2.3-4.5-11.1 6-20.7 14.9-28.2 24.9-1 1.3 1 3 2.1 1.9zm43.7-29.3c4-.3 7.8-1.5 11.7-2.4 3-.7 8.8-3 11.5-1.2 1.4.9 3.2.3 3.7-1.3.1-.2.1-.4.2-.6.4-1.3-.2-2.6-1.2-3.4-3.2-2.6-8.2-.2-11.5.8-5 1.5-10.5 3-14.9 5.9-.8.5-.9 2.3.5 2.2zm44.4-8.6c5 .7 10.1 1.4 15.1 2 4 .5 10.3.1 13.7 2.1 1.6.9 3.4.3 4.1-1.4l.3-.6c.6-1.4-.2-2.9-1.3-3.8-3.3-2.5-9.3-1.6-13.2-1.7-6.1-.2-12.3-.4-18.4-.6-2.7-.2-2.9 3.7-.3 4z"/></g><defs><clipPath id="clip0"><path fill="#fff" transform="translate(.75)" d="M0 0h190.5v130.2H0z"/></clipPath></defs></svg>