<svg xmlns="http://www.w3.org/2000/svg" width="270" height="291" fill="none"><path d="M64.617 211.815c-14.375 1.247-30.209-11.432-38.125-22.241A112.485 112.485 0 018.783 152.16c-4.166-15.797-4.583-31.179-1.458-47.392 2.708-13.718 6.875-27.021 17.709-36.79 24.791-21.825 66.874-17.46 96.041-8.522 27.292 8.314 50.208 25.15 66.042 49.054 16.25 24.527 24.166 57.784 5.416 83.351-9.166 12.471-21.666 24.527-35.416 31.802-14.375 7.483-28.75 11.016-44.584 13.51-15.208 2.495-34.166 2.287-49.166-.831-5.625-1.247-11.667-2.91-14.584-8.314-2.291-4.157 0-7.067 4.375-7.483 2.5-.208 6.042 1.455 8.542 1.871 6.459 1.247 12.917 2.286 19.167 4.157 4.791 1.455 7.5 3.741 10.208 7.69 4.167 6.236 4.792 10.809-2.708 14.758-6.875 3.742-17.709 4.365-25.417 4.365-8.333 0-17.5-.623-24.375-5.404-.417-.416-2.083-1.247-2.5-2.079-1.458-2.91.417-3.533 3.333-3.949 3.334-.416 8.334 1.455 11.667 2.287 7.917 1.662 16.459 4.365 24.167 7.69 3.75 1.663 7.291 4.157 8.125 8.522 1.25 6.444-4.375 9.77-9.792 11.64-7.708 2.703-16.25-.623-23.75-2.286-2.5-.624-7.292-1.247-8.958-3.534-3.334-4.572 3.541-4.78 6.25-4.365 4.583.832 8.75 2.287 13.125 3.95 1.041.415 4.167 1.247 5.208 2.078 3.959 3.118 3.75 8.107-.416 11.225-5.417 4.157-22.5.207-23.126 10.392 0 1.04 1.459 1.248 2.084 1.04.625 0 1.25-.208 2.083-.208 2.5-.208 4.167-3.118.625-2.702-.625 0-1.25.208-2.083.208.625.415 1.458.623 2.083 1.039.417-4.989 6.042-3.534 9.792-3.949 3.541-.416 7.083-1.455 10.208-3.118 4.167-2.287 11.459-7.483 7.709-13.095-2.084-2.91-7.084-3.742-10.209-4.989-3.75-1.455-7.292-2.91-11.25-3.741-4.583-1.04-11.458-2.495-15.625.623-11.875 8.938 15.625 13.927 20 14.758 9.375 1.871 30.417.416 31.25-12.679.625-8.107-6.458-11.848-12.916-13.927-10.417-3.533-20.417-7.067-31.25-8.937-3.959-.624-11.667-2.287-14.792 1.039-3.334 3.326 1.25 7.275 3.958 9.353 14.583 10.601 39.375 6.86 55.209 1.663 4.583-1.455 9.791-3.533 10.624-8.73 1.25-7.275-6.666-15.589-12.708-18.083-8.541-3.534-18.541-4.157-27.708-6.236-4.375-1.039-10.417-3.118-14.584.208-4.166 3.326-2.5 9.353.625 13.095 4.584 5.82 13.959 7.275 20.626 8.106 38.124 5.405 83.124-1.455 112.499-27.853 15.209-13.51 27.5-29.307 30.209-50.093 2.291-19.539-6.25-39.701-16.875-55.706-22.5-34.296-62.917-55.498-103.75-56.537-21.459-.416-44.584.831-62.5 13.926C7.533 76.916 1.908 99.364.242 120.15c-1.667 22.656 5.416 45.313 17.083 64.436 9.584 15.589 27.083 32.01 46.667 30.139 2.292-.208 4.167-3.118.625-2.91z" fill="#0C0D1F"/><path d="M76.492 210.152c4.375-11.224 6.25-24.319 1.25-35.959-5.834-13.511-11.667-25.567-9.167-40.532 1.042-6.444 8.334-25.983 18.542-14.135 2.916 3.534 2.708 8.73 2.291 12.887-.208 2.079-1.041 4.158-1.25 6.236-1.458 3.118-1.25 2.91.834-.416.208-1.039.416-1.87.625-2.91 1.458-6.235 2.708-14.134 8.958-18.083 15.833-9.769 11.875 6.859 10.833 13.511-.625 4.157-4.375 10.808-3.958 14.965.208 4.365 2.083-2.702 2.292-3.325a25.196 25.196 0 011.458-3.534c1.667-4.157 3.75-7.483 8.333-8.73 5.417-1.455 9.375 0 10.417 4.989 2.917 14.134-7.917 29.1-17.5 38.245-8.75 8.315-15.416 18.5-22.291 28.269-1.25 1.871 3.75 1.455 4.791.208 7.083-9.977 13.542-20.162 22.5-28.477 7.083-6.443 13.542-15.381 16.042-24.735 1.666-5.82 4.166-16.42-2.292-20.162-5.833-3.326-13.125-1.247-18.333 2.079-4.792 3.118-7.292 8.938-8.75 14.342-1.042 3.741 0 7.275 4.583 5.196 4.583-2.078 5.625-10.185 6.667-14.342 1.458-5.196 5.416-18.915-.625-22.864-5.834-3.742-14.792 1.039-19.167 4.781-5.625 5.196-12.291 17.875-8.958 25.566.208.624 1.041.831 1.458.831 8.125.208 8.75-11.224 8.542-17.252-.625-11.848-12.292-15.173-21.667-9.561-11.875 7.067-11.667 25.774-8.75 37.414 2.292 9.146 7.917 17.044 10.209 26.19 2.708 10.393.833 20.786-3.126 30.555-.624 1.039 4.584.416 5.209-1.247zM27.95 43.035c-4.583-3.742-7.291-10.185-9.791-15.382-2.292-4.988-5.417-10.6-6.875-16.005-1.459.416-3.126.832-4.792 1.455.208.208.208.624.416.832.625 1.663 5.625.208 5-1.455-.208-.208-.208-.624-.416-.832-.625-1.662-5.625-.415-5 1.455 1.458 6.028 5 12.472 7.917 18.084 2.291 4.78 5 10.6 9.166 13.926 1.25 1.04 5.834-.831 4.375-2.078zm83.75-10.601c0 .208 0 .416-.208.624l5-.624c2.083-10.6 7.083-20.578 6.25-31.594-.209-1.87-4.792-.208-5 1.04 0 .207-.209.415-.209.623-.416 1.87 4.584 1.039 5-.624 0-.208.209-.416.209-.623-1.667.415-3.334.623-5 1.039.833 10.808-4.167 20.578-6.25 30.763-.417 1.87 4.583 1.039 5-.624 0-.208 0-.416.208-.623.417-1.663-4.583-1.04-5 .623zM214.825 95.83c3.75-2.494 7.5-4.78 11.25-7.274 3.75-2.703 7.083-6.236 10.625-9.354h-4.583c-.209.624-.417 1.04-.625 1.663-.625 1.663 4.375 1.04 5-.624.208-.623.416-1.039.625-1.663.833-1.87-3.959-.623-4.584 0-3.333 3.118-6.458 6.444-10.208 9.146-3.542 2.494-7.083 4.78-10.833 7.067-2.709 1.455 1.666 2.079 3.333 1.04zm20.417 74.829v.832c0 .623 1.041.831 1.458.831 4.583.208 8.75-1.663 13.125-3.118 2.292-.831 4.792-1.455 7.292-2.286 2.5-.832 6.041-2.91 8.75-2.495 1.666.208 5.833-2.494 3.125-2.702-4.167-.415-7.292.832-11.042 2.287-5.208 1.87-13.542 5.82-19.167 5.612.417.208 1.042.416 1.459.831v-.831c0-2.079-5.209-.832-5 1.039z" fill="#0C0D1F"/></svg>