<svg xmlns="http://www.w3.org/2000/svg" width="125" height="110" fill="none"><path d="M15.319 62.566c1.56-.673.846-3.337-.837-2.66l-5.398 2.415c-1.56.672-.845 3.337.837 2.66a128.25 128.25 0 015.398-2.415zm-4.961 4.233a57.01 57.01 0 005.764-2.428c1.555-.796 2.987 1.474 1.431 2.269a32.366 32.366 0 01-6.358 2.819c-1.688.555-2.524-2.105-.837-2.66z" fill="#0C0D1F"/><path fill-rule="evenodd" clip-rule="evenodd" d="M101.223 27.63c-2.204-.16-4.622.425-6.918 1.004-2.54-5.652-5.325-11.295-8.343-16.684a104.06 104.06 0 01-.918-1.788c-1.686-3.333-3.771-7.456-6.717-9.295-4.755-2.996-9.912 2.468-12.708 5.882a797.479 797.479 0 00-5.153 6.219C50.346 25.264 40.342 37.42 26.251 45.617a.637.637 0 01-.178.129c-.06.033-.12.066-.178.13-4.695 1.652-9.391 3.304-13.96 5.074-.665.242-1.385.475-2.127.715-2.615.846-5.516 1.784-7.348 3.572-4.117 3.955-.984 12.277.89 16.487 1.746 4.093 5.85 12.254 10.655 13.412 1.355.314 2.808.013 4.378-.416.8 1.519 1.592 3.054 2.387 4.596 2.22 4.301 4.46 8.647 6.96 12.784.177.289.357.585.538.885 2.076 3.429 4.448 7.349 8.87 5.6 5.05-1.911 11.304-7.418 9.603-13.47-.58-2.062-2.164-3.744-3.685-5.358-.712-.755-1.41-1.496-1.984-2.253-2.06-2.735-3.637-5.61-5.219-8.608.361-.136.752-.274 1.143-.412.392-.137.783-.275 1.144-.411 9.556-2.21 19.268-3.57 29.06-2.851 6.533.47 12.96 1.684 19.353 2.891 2.231.422 4.459.842 6.685 1.23.77.123 1.663.324 2.627.54 4.421.993 10.315 2.317 12.451-1.987 2.226-4.394-.239-11.638-2.055-16.975a92.096 92.096 0 01-1.054-3.219c-1.114-3.505-2.227-7.01-3.458-10.39.409-.304.839-.606 1.274-.912 1.963-1.379 4.049-2.844 4.96-5.083 1.109-2.859-.229-5.866-1.553-8.507-.944-2.288-2.512-4.919-5.207-5.18zM10.896 77.424c-1.539-1.898-2.717-3.932-3.783-6.216-1.06-2.161-1.883-4.454-2.344-6.884-1.176-5.094 1.658-7.53 5.988-9.168a408.521 408.521 0 0115.886-5.762c3.02 8.571 6.28 17.01 9.662 25.445-4.691 1.775-9.513 3.31-14.34 4.722-4.462 1.399-7.855 2.021-11.069-2.137zm29.204 13.3c.256.296.575.65.894 1.005.319.355.638.71.893 1.005 2.586 3.693 2.677 6.015-.358 9.56-.815 1.011-2.36 2.051-3.439 2.583-1.077.531-1.799.804-2.525.955.454-.874.903-1.871 1.108-2.858.543-1.735-2.167-2.363-2.71-.628-.21.865-.547 1.612-1.005 2.364l-.38-.352a5.212 5.212 0 01-.383-.413 5.435 5.435 0 00-.382-.414s-.005-.122.117-.127c.11-.31.252-.591.393-.872.142-.281.283-.562.393-.872.337-.747.557-1.368.772-2.11.542-1.735-2.167-2.363-2.71-.629-.16.553-.39 1.041-.637 1.563-.084.179-.17.362-.256.553a14.65 14.65 0 01-1.052-1.917c.278-.684.555-1.398.833-2.113.277-.715.554-1.43.832-2.114.337-.747.187-1.475-.559-1.813-.623-.343-1.594-.183-1.809.56-.168.373-.335.777-.502 1.181v.001c-.168.404-.335.809-.504 1.183-.131-.24-.264-.51-.396-.78-.133-.27-.266-.54-.397-.78l-.394-.72c.117-.126.234-.253.23-.375.282-.562.567-1.093.85-1.625.285-.531.57-1.062.853-1.624.79-1.622-1.577-2.876-2.368-1.254-.171.313-.34.656-.51 1-.17.342-.34.686-.51.999l-1.184-2.157a.598.598 0 01.13-.105c.062-.043.108-.074.105-.15.229-.375.489-.752.749-1.13.26-.377.52-.755.749-1.13.341-.626.064-1.472-.56-1.815-.745-.337-1.467-.064-1.808.56-.23.377-.46.753-.81 1.134-.195-.298-.36-.629-.526-.959a9.748 9.748 0 00-.526-.958c.722-.273 1.444-.546 2.17-.697 3.379-.989 6.875-2.105 10.244-3.338l.47.806c1.94 3.336 3.923 6.743 6.415 9.817zm50.163-15.67a743.032 743.032 0 01-4.555-.818c-6.442-1.171-12.849-2.336-19.387-2.773-9.3-.616-18.28.715-27.359 2.661-3.513-8.674-6.782-17.358-9.93-26.046C43.82 39.177 55.018 25.888 65.6 12.5c.419-.495.896-1.148 1.426-1.875 1.097-1.503 2.423-3.32 3.932-4.698 6.007 8.212 10.363 18.31 14.458 27.804l.003.007c.65 1.508 1.294 3.001 1.937 4.469 5.363 12.273 10.032 25.552 12.864 38.66-2.26.004-5.006-.664-7.262-1.212-1.032-.251-1.962-.477-2.695-.602zm15.19-1.696c-.045 1.96-.987 2.853-2.43 3.4-2.973-13.591-7.666-27.482-13.409-40.107-.854-1.9-1.702-3.84-2.559-5.797-3.967-9.068-8.107-18.532-13.834-26.36 1.2-.537 2.413-.707 3.534-.14 1.379.677 2.657 3.313 3.496 5.043l.001.003c.145.298.276.57.393.8 4.05 6.817 7.506 14.025 10.718 21.242 3.879 8.66 7.275 17.461 10.071 26.53.271.8.576 1.65.893 2.534 1.455 4.054 3.169 8.831 3.126 12.852zm-.526-32.167c-.776 1.164-2.08 2.088-3.323 2.968-.234.166-.466.33-.692.494-1.644-4.586-3.527-9.04-5.405-13.373.546-.083 1.09-.196 1.635-.309.545-.113 1.09-.226 1.636-.309 2.672-.35 3.675.346 5.112 2.738l.022.043c1.185 2.273 2.736 5.249 1.015 7.748z" fill="#0C0D1F"/><path d="M101.634 19.414l-.306-7.821c-.067-1.71-2.749-1.606-2.803.11l.305 7.82c.19 1.706 2.87 1.601 2.804-.11zm13.456 2.35c-.669.821-1.339 1.643-2.039 2.465-1.166 1.392-3.192-.487-2.026-1.879.7-.823 1.37-1.644 2.039-2.466.67-.822 1.34-1.643 2.04-2.466 1.166-1.392 3.192.487 2.026 1.879-.7.822-1.369 1.644-2.039 2.465l-.001.002zm7.694 11.018c-2.076-.04-4.026.036-6.098.117-1.706.066-1.601 2.755.11 2.81 1.038.02 2.044-.019 3.049-.058 1.006-.04 2.011-.079 3.049-.058 1.711.055 1.601-2.755-.11-2.81zm-11.116 15.366c-1.501-.92-.251-3.294 1.25-2.374 2.002 1.268 3.893 2.785 5.783 4.302 1.388 1.17-.485 3.201-1.874 2.032-1.641-1.405-3.405-2.804-5.159-3.96z" fill="#0C0D1F"/></svg>