<svg width="147" height="150" fill="none" xmlns="http://www.w3.org/2000/svg"><path d="M14.381 69.391c-5.304 5.002-5.3 15.468-4.536 22.156.91 7.925 3.867 15.632 8.434 22.174 8.828 12.734 24.225 21.789 39.654 23.448 1.061.105 1.4-1.419.36-1.658-14.532-3.043-28.098-9.033-37.316-21.19-4.494-5.924-7.65-12.861-9.066-20.171-1.452-7.62-1.652-17.702 3.008-24.291.195-.385-.188-.774-.538-.468zm2.641-12.149c-.162.5-.325 1.004-.52 1.505-.099.29-.523.17-.521-.023-.306-3.305 2.529-8.401 5.625-9.537.561-.247 1 .51.63.951-.477.53-1.006.99-1.534 1.448-.83.72-1.656 1.439-2.276 2.425-.686 1.02-1.042 2.117-1.404 3.23z" fill="#fff"/><path fill-rule="evenodd" clip-rule="evenodd" d="M75.559 144.986c6.91-2.635 14.707-5.747 20.274-10.923a70.576 70.576 0 0010.381-9.064c4.836 3.551 9.681 7.084 14.527 10.617 5.069 3.697 10.139 7.394 15.198 11.11.845.625 1.836-.276 1.359-1.148-1.88-3.71-3.789-7.36-5.715-11.042l-.431-.824-.405-.774c-.696-1.331-1.468-2.682-2.25-4.049-1.699-2.972-3.44-6.017-4.529-9.094-1.276-3.608 1.287-5.961 3.731-8.206.638-.586 1.268-1.165 1.82-1.757a61.288 61.288 0 006.27-7.948c7.57-11.647 10.97-25.855 9.812-39.671-2.425-28.56-25.496-60.808-56.376-61.036C74.17 1.065 59.38 7.483 46.646 15.094c-13.005 7.764-24.542 18.068-32.93 30.752-15.976 24.08-19.015 58.528-.264 82.034 9.107 11.422 22.617 19.807 37.373 21.171 8.468.778 16.857-1.053 24.734-4.065zm21.93-14.457a22.77 22.77 0 01-.51.574 69.24 69.24 0 01-7.268 4.911c-.385.234-.444.625-.314.957-4.144 2.381-8.746 4.154-12.998 5.793l-.363.14c-7.47 2.88-15.358 4.869-23.462 4.422-13.08-.753-25.426-7.333-34.374-16.688-20.482-21.53-19.685-55.57-5.211-80.124 7.656-12.96 18.752-23.634 31.315-31.768C56.5 10.861 70.752 4.17 85.39 3.196c31.765-2.18 56.108 30.425 58.355 59.621 1.205 15.343-3.383 31.221-13.252 43.102-.917 1.104-2.017 2.16-3.123 3.219-3.566 3.42-7.176 6.882-4.782 12.133 2.742 5.966 5.903 11.796 9.044 17.59l.002.004c.759 1.4 1.518 2.798 2.268 4.196a10100.957 10100.957 0 01-27.232-19.822c-.345-.273-.866-.296-1.197.069a68.495 68.495 0 01-7.52 7.03.558.558 0 00-.463.191z" fill="#fff"/><path d="M14.381 69.391c-5.304 5.002-5.3 15.468-4.536 22.156.91 7.925 3.867 15.632 8.434 22.174 8.828 12.734 24.225 21.789 39.654 23.448 1.061.105 1.4-1.419.36-1.658-14.532-3.043-28.098-9.033-37.316-21.19-4.494-5.924-7.65-12.861-9.066-20.171-1.452-7.62-1.652-17.702 3.008-24.291.195-.385-.188-.774-.538-.468zm2.641-12.149c-.162.5-.325 1.004-.52 1.505-.099.29-.523.17-.521-.023-.306-3.305 2.529-8.401 5.625-9.537.561-.247 1 .51.63.951-.477.53-1.006.99-1.534 1.448-.83.72-1.656 1.439-2.276 2.425-.686 1.02-1.042 2.117-1.404 3.23z" stroke="#fff"/><path clip-rule="evenodd" d="M75.559 144.986c6.91-2.635 14.707-5.747 20.274-10.923a70.576 70.576 0 0010.381-9.064c4.836 3.551 9.681 7.084 14.527 10.617 5.069 3.697 10.139 7.394 15.198 11.11.845.625 1.836-.276 1.359-1.148-1.88-3.71-3.789-7.36-5.715-11.042l-.431-.824-.405-.774c-.696-1.331-1.468-2.682-2.25-4.049-1.699-2.972-3.44-6.017-4.529-9.094-1.276-3.608 1.287-5.961 3.731-8.206.638-.586 1.268-1.165 1.82-1.757a61.288 61.288 0 006.27-7.948c7.57-11.647 10.97-25.855 9.812-39.671-2.425-28.56-25.496-60.808-56.376-61.036C74.17 1.065 59.38 7.483 46.646 15.094c-13.005 7.764-24.542 18.068-32.93 30.752-15.976 24.08-19.015 58.528-.264 82.034 9.107 11.422 22.617 19.807 37.373 21.171 8.468.778 16.857-1.053 24.734-4.065zm21.93-14.457a22.77 22.77 0 01-.51.574 69.24 69.24 0 01-7.268 4.911c-.385.234-.444.625-.314.957-4.144 2.381-8.746 4.154-12.998 5.793l-.363.14c-7.47 2.88-15.358 4.869-23.462 4.422-13.08-.753-25.426-7.333-34.374-16.688-20.482-21.53-19.685-55.57-5.211-80.124 7.656-12.96 18.752-23.634 31.315-31.768C56.5 10.861 70.752 4.17 85.39 3.196c31.765-2.18 56.108 30.425 58.355 59.621 1.205 15.343-3.383 31.221-13.252 43.102-.917 1.104-2.017 2.16-3.123 3.219-3.566 3.42-7.176 6.882-4.782 12.133 2.742 5.966 5.903 11.796 9.044 17.59l.002.004c.759 1.4 1.518 2.798 2.268 4.196a10100.957 10100.957 0 01-27.232-19.822c-.345-.273-.866-.296-1.197.069a68.495 68.495 0 01-7.52 7.03.558.558 0 00-.463.191z" stroke="#fff"/></svg>