<svg xmlns="http://www.w3.org/2000/svg" width="112" height="112" fill="none"><path fill-rule="evenodd" clip-rule="evenodd" d="M36.567 56.02c-.43-10.457 7.741-18.867 17.955-19.73 25.802-3.126 28.598 39.03 2.15 38.707-10.536-.108-19.567-8.195-20.105-18.976zm3.226 0c.537 8.842 8.063 15.742 16.879 15.742 22.362 0 19.46-34.825-2.15-32.237-8.494.647-15.267 7.87-14.73 16.496z" fill="#fff"/><path d="M48.609 28.204a18.54 18.54 0 016.02-.97c2.043 0 2.043-3.235 0-3.235-2.365 0-4.623.324-6.88 1.079-1.936.646-1.183 3.773.86 3.126zm22.469 3.343c-1.29-1.186-2.795-1.941-4.515-2.372-2.043-.54-1.183-3.666.752-3.127 2.258.647 4.3 1.725 6.021 3.234 1.613 1.294-.645 3.666-2.258 2.265zm14.514 12.506c-.752-2.048-1.72-3.881-3.01-5.606-.538-.647-1.398-1.078-2.258-.54-.645.432-1.075 1.51-.537 2.265 1.075 1.51 2.042 3.019 2.688 4.852.752 1.832 3.87.97 3.117-.97zm-2.15 18.868a46.93 46.93 0 00.968-5.606c.107-2.049 3.333-2.049 3.225 0-.215 2.156-.538 4.312-1.075 6.469-.538 2.048-3.656 1.186-3.118-.863zm-3.44 10.135c-.645-.431-1.828-.216-2.258.539a8.365 8.365 0 01-3.44 3.774c-1.828.97-.215 3.773 1.612 2.803 2.043-1.078 3.656-2.911 4.623-4.96.43-.755.323-1.725-.537-2.156zM57.64 83.838c1.935-.216 3.762-.432 5.59-.755 2.043-.431 2.903 2.695.86 3.127-2.15.43-4.3.646-6.45.862-2.043.216-2.043-3.019 0-3.234zm-11.72-1.941c-1.934-.54-3.654-1.402-5.267-2.588-.753-.539-1.828-.108-2.258.54-.537.862-.107 1.724.538 2.263a20.758 20.758 0 006.02 2.912c2.15.646 3.01-2.48.968-3.127zM26.569 66.695c-.538-2.049 2.58-2.911 3.118-.863.537 1.833 1.29 3.45 2.365 4.852.538.647.645 1.617 0 2.264-.538.54-1.72.647-2.258 0a16.503 16.503 0 01-3.225-6.253zm1.613-12.615c0-1.94.107-3.881.43-5.822.322-2.048-2.796-2.91-3.118-.862-.323 2.264-.538 4.42-.538 6.684.108 2.049 3.333 2.049 3.226 0zm3.225-18.329c1.505-1.832 3.225-3.342 5.16-4.528 1.828-1.186 3.44 1.617 1.613 2.803-1.72 1.078-3.225 2.372-4.515 3.99-.538.646-1.72.539-2.258 0-.645-.647-.538-1.618 0-2.265z" fill="#fff"/><path fill-rule="evenodd" clip-rule="evenodd" d="M111.757 54.487c-.033.822-.064 1.573-.04 2.18.019.451.067.964.118 1.51l.001.002c.243 2.594.558 5.957-1.839 7.114-2.28 1.464-6.263 1.142-9.519.88a93.873 93.873 0 00-1.662-.125c-1.075 3.45-2.15 6.792-3.548 10.135-1.434 3.415-.925 3.833 1.028 5.44l.002.001c.389.32.835.688 1.335 1.135l.066.059c2.968 2.657 4.541 4.066 2.3 7.812-1.935 3.342-5.698 7.224-9.031 9.272-3.261 1.947-4.896-.1-6.768-2.443-.72-.9-1.475-1.846-2.37-2.624-2.342-2.18-4.293-.904-6.41.481-.605.396-1.224.8-1.869 1.136-.64.362-1.7.708-2.814 1.073-1.879.615-3.917 1.282-4.39 2.162-.464.932-.143 2.464.181 4.015.276 1.317.555 2.649.357 3.64-.43 1.94-1.397 3.126-3.332 3.881-2.38.954-5.516.81-8.144.69h-.005l-.507-.023-.483-.02c-.308 0-.651.009-1.018.018-2.195.057-5.233.135-6.615-1.528-1.737-1.99-1.31-5.385-.923-8.465.116-.924.228-1.819.278-2.64-4.73-.647-8.816-2.372-12.579-5.067-.294.307-.596.632-.906.965-2.52 2.713-5.562 5.986-9.2 4.641-3.655-1.509-11.289-7.978-12.471-11.644-.871-2.62 1.246-4.601 3.178-6.408.93-.87 1.816-1.7 2.305-2.54.12-.3.405-.567.636-.781.183-.172.331-.31.331-.406.079-.391-.524-1.408-.983-2.183-.173-.293-.326-.55-.414-.728-1.183-2.695-2.043-5.498-2.795-8.302l-.687.097c-3.038.431-6.916.981-9.312-.42C.911 65.172.761 62.41.623 59.871.6 59.48.58 59.091.55 58.716a77.803 77.803 0 00-.143-1.25l-.001-.005C0 54.075-.646 48.704 1.627 46.425c2.472-2.372 7.418-1.94 10.966-1.078 1.182-4.636 3.117-8.733 5.913-12.507a76.986 76.986 0 00-1.61-1.594c-3.597-3.492-7.067-6.861-2.583-11.451.39-.41.817-.88 1.273-1.385 2.426-2.684 5.699-6.305 9.048-6.486 3.277-.094 5.576 2.757 7.607 5.275.3.373.595.739.886 1.086 2.903-1.833 5.806-3.234 9.031-4.42.511-.19.921-.31 1.257-.41 1.008-.298 1.35-.4 1.753-1.531.392-1.112.19-2.422-.006-3.69-.127-.822-.251-1.627-.209-2.348.18-4.884 3.917-5.064 7.783-5.25a47.432 47.432 0 002.216-.14c.683-.05 1.401-.13 2.132-.213 4.097-.463 8.6-.971 9.694 3.878.216.974.134 2.002.053 3.017-.08 1.007-.16 2 .054 2.913.491 2.166.892 2.354 2.677 3.191l.36.17.189.09c1.136.53 2.258.995 3.367 1.454l.007.003c2.038.844 4.031 1.669 5.98 2.855.3-.34.617-.71.948-1.097 2.51-2.93 5.833-6.813 9.157-5.48 1.678.688 3.301 2.461 4.756 4.05.596.651 1.164 1.27 1.695 1.772.44.415.954.842 1.49 1.288l.001.001c1.694 1.408 3.61 3 4.099 4.964.43 1.51-.107 2.696-.967 3.99-.509.765-1.836 1.651-3.14 2.52-1.45.969-2.87 1.917-3.096 2.655-.214.646.475 1.769 1.088 2.766.308.5.596.97.74 1.33.668 1.609 1.129 3.342 1.588 5.07.28 1.053.559 2.105.885 3.125.659.02 1.385.021 2.146.023 3.332.006 7.324.014 9.25 1.594 1.915 1.587 1.766 5.242 1.652 8.063zm-11 8.754c2.003.133 4.163.276 5.692-.212 2.458-.822 2.295-2.88 2.122-5.063a33.714 33.714 0 01-.079-1.19c-.021-.65.003-1.312.026-1.965.098-2.705.189-5.253-2.929-6.122-1.644-.501-3.573-.527-5.408-.55h-.002c-.924-.013-1.825-.024-2.653-.097-.645-.107-1.29-.43-1.505-1.186-.43-1.24-.806-2.533-1.183-3.827v-.002c-.376-1.293-.753-2.586-1.182-3.825-.338-.96-.793-1.8-1.242-2.63-.41-.758-.816-1.507-1.124-2.33-.645-1.725-.537-2.588.753-3.99.635-.686 1.493-1.194 2.34-1.695 1.017-.602 2.02-1.196 2.605-2.078 1.82-2.92-.672-4.99-2.85-6.799-.395-.329-.78-.649-1.128-.964-.46-.439-.886-.907-1.298-1.36-1.51-1.66-2.825-3.106-4.937-2.09-1.388.733-2.776 2.361-4.063 3.871-.607.712-1.191 1.398-1.743 1.951-.645.647-1.29.647-1.827.324a1.769 1.769 0 00-.16-.07l-.045-.018a.568.568 0 01-.225-.128c-3.274-2.188-6.639-3.367-10.264-4.637l-.026-.01a469.886 469.886 0 01-1.325-.465h-.002c-1.262-.441-2.123-.742-2.897-2.004-.681-1.229-.543-2.458-.404-3.687.08-.712.16-1.423.081-2.135-.03-.51-.001-.996.025-1.447.069-1.168.123-2.105-.885-2.65-1.075-.647-2.043-.862-3.978-.755-.856.058-1.772.145-2.669.231h-.002c-.792.076-1.569.15-2.274.2-.254.024-.512.043-.772.063-2.168.162-4.458.334-5.034 2.741-.178.716-.028 1.53.124 2.353.123.664.247 1.333.199 1.96-.013.154-.024.314-.036.478-.086 1.215-.187 2.656-1.04 3.51-.544.638-1.472.968-2.266 1.25l-.006.002-.082.03-.12.042-.09.033-.123.045-.623.243c-3.651 1.42-7.201 2.802-10.558 5.148-.86.647-1.828.108-2.15-.755a62.228 62.228 0 01-.937-1.124c-2.233-2.723-4.16-5.073-8.417-3.08-1.613.647-4.516 3.773-5.483 5.175-1.994 2.916.7 5.382 3.118 7.596.71.65 1.398 1.28 1.935 1.892.43.431.645 1.401.215 1.94-3.333 4.313-5.483 8.841-6.666 14.124-.107.863-1.075 1.294-1.935 1.079-1.505-.324-6.45-1.294-8.063-.324-1.214.843-1.455 2.66-1.638 4.042-.028.21-.054.41-.082.594-.323 2.48 0 5.607.43 8.194.6 3.11 2.131 3.046 4.767 2.936h.006l.602-.025c1.625 0 3.153-.192 4.767-.395l.286-.036c.645-.108 1.398.54 1.505 1.186.43 2.156 1.075 4.313 1.828 6.469.315.858.763 1.735 1.216 2.623.628 1.232 1.267 2.485 1.58 3.738.395 1.784-.027 2.201-1.183 3.345l-.195.194-.07.07-.058.057c-.306.281-.684.593-1.09.927-1.309 1.077-2.908 2.393-3.318 3.71-.636 2.186 1.262 3.833 2.838 5.202l.001.001a41.497 41.497 0 01.817.726c.246.247.508.522.785.812 1.893 1.987 4.45 4.67 7.17 3.824 1.299-.383 3.032-2.29 4.427-3.826h.001l.001-.002.002-.002c.567-.624 1.079-1.187 1.483-1.56.537-.432 1.075-.54 1.612-.324l.645.323c3.978 3.02 8.279 4.852 13.224 5.283.968.108 1.505.647 1.613 1.618.082 1.723-.024 3.446-.126 5.121v.004l-.045.757c-.016.269-.031.536-.044.802-.107 4.056 1.367 4.097 5.151 4.202l.117.003c4.408.108 9.138.108 9.138-5.391 0-.83-.07-1.642-.14-2.444-.102-1.177-.203-2.331-.075-3.486 0-.431.538-.97 1.075-1.078 4.193-.755 7.31-2.372 10.966-4.42.281-.152.58-.33.89-.515 1.238-.738 2.681-1.598 4.056-1.426 1.875.17 3.21 1.9 4.379 3.416.305.396.6.777.889 1.112.2.233.388.46.568.68h.001c1.07 1.301 1.86 2.261 3.516 1.8.79-.264 1.795-1.318 2.547-2.107a66.635 66.635 0 01.399-.415l.034-.035.03-.03.133-.124c1.518-1.401 5.54-5.116 4.706-7.208-.429-1.166-1.728-2.053-3.026-2.938-.982-.67-1.963-1.34-2.565-2.13-1.183-1.617-1.505-2.695-.753-4.636.668-1.83 1.428-3.624 2.189-5.42l.002-.004c1.075-2.537 2.152-5.078 2.97-7.73 0-.215.095-.335.19-.454a.99.99 0 00.132-.192c.215-.324.645-.54 1.183-.54.873-.037 1.921.032 3.016.105z" fill="#fff"/></svg>